<svg id="stage" viewBox="-80 -80 1184 1696" preserveAspectRatio="xMidYMid meet" fill="rgb(0, 0, 0)" stroke="none" stroke-width="1px" stroke-linecap="butt" stroke-linejoin="miter" opacity="1" fill-rule="nonzero" stroke-dasharray="none" stroke-dashoffset="0px" stop-color="rgb(0, 0, 0)" stop-opacity="1" xmlns="http://www.w3.org/2000/svg"><g id="rig" fill="rgb(0, 0, 0)" stroke="none" stroke-width="1px" stroke-linecap="butt" stroke-linejoin="miter" opacity="1" fill-rule="nonzero" stroke-dasharray="none" stroke-dashoffset="0px" stop-color="rgb(0, 0, 0)" stop-opacity="1"><line x1="507.0640733105389" y1="525.6017052656625" x2="506.09045643840784" y2="893.1006394746234" fill="rgb(0, 0, 0)" stroke="rgb(11, 11, 11)" stroke-width="15px" stroke-linecap="round" stroke-linejoin="miter" opacity="1" fill-rule="nonzero" stroke-dasharray="none" stroke-dashoffset="0px" stop-color="rgb(0, 0, 0)" stop-opacity="1"/><line x1="500.07538036533987" y1="530.5010657910391" x2="435.63401306408457" y2="689.5914432892195" fill="rgb(0, 0, 0)" stroke="rgb(11, 11, 11)" stroke-width="15px" stroke-linecap="round" stroke-linejoin="miter" opacity="1" fill-rule="nonzero" stroke-dasharray="none" stroke-dashoffset="0px" stop-color="rgb(0, 0, 0)" stop-opacity="1"/><line x1="435.63401306408457" y1="689.5914432892195" x2="337.8842577483222" y2="934.1067516318038" fill="rgb(0, 0, 0)" stroke="rgb(11, 11, 11)" stroke-width="15px" stroke-linecap="round" stroke-linejoin="miter" opacity="1" fill-rule="nonzero" stroke-dasharray="none" stroke-dashoffset="0px" stop-color="rgb(0, 0, 0)" stop-opacity="1"/><line x1="514.0753803653399" y1="530.5010657910391" x2="581.3659869359154" y2="690.4085567107805" fill="rgb(0, 0, 0)" stroke="rgb(11, 11, 11)" stroke-width="15px" stroke-linecap="round" stroke-linejoin="miter" opacity="1" fill-rule="nonzero" stroke-dasharray="none" stroke-dashoffset="0px" stop-color="rgb(0, 0, 0)" stop-opacity="1"/><line x1="581.3659869359154" y1="690.4085567107805" x2="675.4772825641583" y2="934.4529144884327" fill="rgb(0, 0, 0)" stroke="rgb(11, 11, 11)" stroke-width="15px" stroke-linecap="round" stroke-linejoin="miter" opacity="1" fill-rule="nonzero" stroke-dasharray="none" stroke-dashoffset="0px" stop-color="rgb(0, 0, 0)" stop-opacity="1"/><line x1="500.09045643840784" y1="893.1006394746234" x2="453.3602807535988" y2="1094.0508278436412" fill="rgb(0, 0, 0)" stroke="rgb(11, 11, 11)" stroke-width="15px" stroke-linecap="round" stroke-linejoin="miter" opacity="1" fill-rule="nonzero" stroke-dasharray="none" stroke-dashoffset="0px" stop-color="rgb(0, 0, 0)" stop-opacity="1"/><line x1="453.3602807535988" y1="1094.0508278436412" x2="360.9364712596827" y2="1364.790677330598" fill="rgb(0, 0, 0)" stroke="rgb(11, 11, 11)" stroke-width="15px" stroke-linecap="round" stroke-linejoin="miter" opacity="1" fill-rule="nonzero" stroke-dasharray="none" stroke-dashoffset="0px" stop-color="rgb(0, 0, 0)" stop-opacity="1"/><line x1="512.0904564384078" y1="893.1006394746234" x2="559.6397192464012" y2="1095.9491721563588" fill="rgb(0, 0, 0)" stroke="rgb(11, 11, 11)" stroke-width="15px" stroke-linecap="round" stroke-linejoin="miter" opacity="1" fill-rule="nonzero" stroke-dasharray="none" stroke-dashoffset="0px" stop-color="rgb(0, 0, 0)" stop-opacity="1"/><line x1="559.6397192464012" y1="1095.9491721563588" x2="659.071950103817" y2="1364.9689855267688" fill="rgb(0, 0, 0)" stroke="rgb(11, 11, 11)" stroke-width="15px" stroke-linecap="round" stroke-linejoin="miter" opacity="1" fill-rule="nonzero" stroke-dasharray="none" stroke-dashoffset="0px" stop-color="rgb(0, 0, 0)" stop-opacity="1"/><ellipse cx="325.46447347574343" cy="965.7571696167627" rx="46" ry="26" transform="rotate(111.7483151989757 325.46447347574343 965.7571696167627)" fill="rgb(255, 255, 255)" stroke="rgb(11, 11, 11)" stroke-width="15px" stroke-linecap="butt" stroke-linejoin="miter" opacity="1" fill-rule="nonzero" stroke-dasharray="none" stroke-dashoffset="0px" stop-color="rgb(0, 0, 0)" stop-opacity="1"/><ellipse cx="687.5355265242565" cy="966.2428303832373" rx="46" ry="26" transform="rotate(68.94811669347523 687.5355265242565 966.2428303832373)" fill="rgb(255, 255, 255)" stroke="rgb(11, 11, 11)" stroke-width="15px" stroke-linecap="butt" stroke-linejoin="miter" opacity="1" fill-rule="nonzero" stroke-dasharray="none" stroke-dashoffset="0px" stop-color="rgb(0, 0, 0)" stop-opacity="1"/><ellipse cx="353.3400701883997" cy="1386.5" rx="58" ry="22" fill="rgb(255, 255, 255)" stroke="rgb(11, 11, 11)" stroke-width="15px" stroke-linecap="butt" stroke-linejoin="miter" opacity="1" fill-rule="nonzero" stroke-dasharray="none" stroke-dashoffset="0px" stop-color="rgb(0, 0, 0)" stop-opacity="1"/><ellipse cx="667.1599298116003" cy="1386.5" rx="58" ry="22" fill="rgb(255, 255, 255)" stroke="rgb(11, 11, 11)" stroke-width="15px" stroke-linecap="butt" stroke-linejoin="miter" opacity="1" fill-rule="nonzero" stroke-dasharray="none" stroke-dashoffset="0px" stop-color="rgb(0, 0, 0)" stop-opacity="1"/><g data-hair-layer="back" transform="translate(505.0452282192039 341.8022736875501) rotate(0.0433437100704248) scale(1)" fill="rgb(0, 0, 0)" stroke="none" stroke-width="1px" stroke-linecap="butt" stroke-linejoin="miter" opacity="1" fill-rule="nonzero" stroke-dasharray="none" stroke-dashoffset="0px" stop-color="rgb(0, 0, 0)" stop-opacity="1"><path d="M 0.00 -234.82 L -0.00 -233.57 L -0.00 -229.84 L -0.00 -223.67 L -0.00 -215.12 L -0.00 -204.29 L -0.00 -191.29 L -0.00 -176.25 L -0.00 -159.34 L -0.00 -140.74 L -0.00 -120.64 L -0.00 -99.26 L -0.00 -76.82 L -0.00 -53.57 L -0.00 -29.75 L -0.00 -5.62 L -0.00 18.58 L -19.44 18.58 L -19.50 -5.62 L -19.35 -29.75 L -18.99 -53.57 L -18.43 -76.82 L -17.68 -99.26 L -16.73 -120.64 L -15.61 -140.74 L -14.33 -159.34 L -12.89 -176.25 L -11.31 -191.29 L -9.62 -204.29 L -7.82 -215.12 L -5.94 -223.67 L -3.99 -229.84 L -2.01 -233.57 L 0.00 -234.82 Z" fill="rgb(11, 11, 11)" stroke="rgb(11, 11, 11)" stroke-width="1.2px" stroke-linejoin="round" stroke-linecap="butt" opacity="1" fill-rule="nonzero" stroke-dasharray="none" stroke-dashoffset="0px" stop-color="rgb(0, 0, 0)" stop-opacity="1"/><path d="M 0.00 -234.82 L 2.01 -233.57 L 3.99 -229.84 L 5.94 -223.67 L 7.82 -215.12 L 9.62 -204.29 L 11.31 -191.29 L 12.89 -176.25 L 14.33 -159.34 L 15.61 -140.74 L 16.73 -120.64 L 17.68 -99.26 L 18.43 -76.82 L 18.99 -53.57 L 19.35 -29.75 L 19.50 -5.62 L 19.44 18.58 L 0.00 18.58 L 0.00 -5.62 L 0.00 -29.75 L 0.00 -53.57 L 0.00 -76.82 L 0.00 -99.26 L 0.00 -120.64 L 0.00 -140.74 L 0.00 -159.34 L 0.00 -176.25 L 0.00 -191.29 L 0.00 -204.29 L 0.00 -215.12 L 0.00 -223.67 L 0.00 -229.84 L 0.00 -233.57 L 0.00 -234.82 Z" fill="rgb(11, 11, 11)" stroke="rgb(11, 11, 11)" stroke-width="1.2px" stroke-linejoin="round" stroke-linecap="butt" opacity="1" fill-rule="nonzero" stroke-dasharray="none" stroke-dashoffset="0px" stop-color="rgb(0, 0, 0)" stop-opacity="1"/><path d="M 0.00 -234.82 L 4.00 -233.57 L 7.95 -229.84 L 11.82 -223.67 L 15.56 -215.12 L 19.14 -204.29 L 22.52 -191.29 L 25.65 -176.25 L 28.52 -159.34 L 31.08 -140.74 L 33.31 -120.64 L 35.18 -99.26 L 36.69 -76.82 L 37.80 -53.57 L 38.51 -29.75 L 38.81 -5.62 L 38.70 18.58 L 19.44 18.58 L 19.50 -5.62 L 19.35 -29.75 L 18.99 -53.57 L 18.43 -76.82 L 17.68 -99.26 L 16.73 -120.64 L 15.61 -140.74 L 14.33 -159.34 L 12.89 -176.25 L 11.31 -191.29 L 9.62 -204.29 L 7.82 -215.12 L 5.94 -223.67 L 3.99 -229.84 L 2.01 -233.57 L 0.00 -234.82 Z" fill="rgb(11, 11, 11)" stroke="rgb(11, 11, 11)" stroke-width="1.2px" stroke-linejoin="round" stroke-linecap="butt" opacity="1" fill-rule="nonzero" stroke-dasharray="none" stroke-dashoffset="0px" stop-color="rgb(0, 0, 0)" stop-opacity="1"/><path d="M 0.00 -234.82 L -2.01 -233.57 L -3.99 -229.84 L -5.94 -223.67 L -7.82 -215.12 L -9.62 -204.29 L -11.31 -191.29 L -12.89 -176.25 L -14.33 -159.34 L -15.61 -140.74 L -16.73 -120.64 L -17.68 -99.26 L -18.43 -76.82 L -18.99 -53.57 L -19.35 -29.75 L -19.50 -5.62 L -19.44 18.58 L -38.70 18.58 L -38.81 -5.62 L -38.51 -29.75 L -37.80 -53.57 L -36.69 -76.82 L -35.18 -99.26 L -33.31 -120.64 L -31.08 -140.74 L -28.52 -159.34 L -25.65 -176.25 L -22.52 -191.29 L -19.14 -204.29 L -15.56 -215.12 L -11.82 -223.67 L -7.95 -229.84 L -4.00 -233.57 L 0.00 -234.82 Z" fill="rgb(11, 11, 11)" stroke="rgb(11, 11, 11)" stroke-width="1.2px" stroke-linejoin="round" stroke-linecap="butt" opacity="1" fill-rule="nonzero" stroke-dasharray="none" stroke-dashoffset="0px" stop-color="rgb(0, 0, 0)" stop-opacity="1"/><path d="M 0.00 -234.82 L -4.00 -233.57 L -7.95 -229.84 L -11.82 -223.67 L -15.56 -215.12 L -19.14 -204.29 L -22.52 -191.29 L -25.65 -176.25 L -28.52 -159.34 L -31.08 -140.74 L -33.31 -120.64 L -35.18 -99.26 L -36.69 -76.82 L -37.80 -53.57 L -38.51 -29.75 L -38.81 -5.62 L -38.70 18.58 L -57.59 18.58 L -57.75 -5.62 L -57.30 -29.75 L -56.24 -53.57 L -54.59 -76.82 L -52.35 -99.26 L -49.56 -120.64 L -46.24 -140.74 L -42.43 -159.34 L -38.17 -176.25 L -33.51 -191.29 L -28.48 -204.29 L -23.16 -215.12 L -17.59 -223.67 L -11.83 -229.84 L -5.95 -233.57 L 0.00 -234.82 Z" fill="rgb(11, 11, 11)" stroke="rgb(11, 11, 11)" stroke-width="1.2px" stroke-linejoin="round" stroke-linecap="butt" opacity="1" fill-rule="nonzero" stroke-dasharray="none" stroke-dashoffset="0px" stop-color="rgb(0, 0, 0)" stop-opacity="1"/><path d="M 0.00 -234.82 L 5.95 -233.57 L 11.83 -229.84 L 17.59 -223.67 L 23.16 -215.12 L 28.48 -204.29 L 33.51 -191.29 L 38.17 -176.25 L 42.43 -159.34 L 46.24 -140.74 L 49.56 -120.64 L 52.35 -99.26 L 54.59 -76.82 L 56.24 -53.57 L 57.30 -29.75 L 57.75 -5.62 L 57.59 18.58 L 38.70 18.58 L 38.81 -5.62 L 38.51 -29.75 L 37.80 -53.57 L 36.69 -76.82 L 35.18 -99.26 L 33.31 -120.64 L 31.08 -140.74 L 28.52 -159.34 L 25.65 -176.25 L 22.52 -191.29 L 19.14 -204.29 L 15.56 -215.12 L 11.82 -223.67 L 7.95 -229.84 L 4.00 -233.57 L 0.00 -234.82 Z" fill="rgb(11, 11, 11)" stroke="rgb(11, 11, 11)" stroke-width="1.2px" stroke-linejoin="round" stroke-linecap="butt" opacity="1" fill-rule="nonzero" stroke-dasharray="none" stroke-dashoffset="0px" stop-color="rgb(0, 0, 0)" stop-opacity="1"/><path d="M 0.00 -234.82 L -5.95 -233.57 L -11.83 -229.84 L -17.59 -223.67 L -23.16 -215.12 L -28.48 -204.29 L -33.51 -191.29 L -38.17 -176.25 L -42.43 -159.34 L -46.24 -140.74 L -49.56 -120.64 L -52.35 -99.26 L -54.59 -76.82 L -56.24 -53.57 L -57.30 -29.75 L -57.75 -5.62 L -57.59 18.58 L -75.92 18.58 L -76.13 -5.62 L -75.54 -29.75 L -74.15 -53.57 L -71.96 -76.82 L -69.02 -99.26 L -65.34 -120.64 L -60.96 -140.74 L -55.94 -159.34 L -50.32 -176.25 L -44.17 -191.29 L -37.55 -204.29 L -30.53 -215.12 L -23.19 -223.67 L -15.60 -229.84 L -7.84 -233.57 L 0.00 -234.82 Z" fill="rgb(11, 11, 11)" stroke="rgb(11, 11, 11)" stroke-width="1.2px" stroke-linejoin="round" stroke-linecap="butt" opacity="1" fill-rule="nonzero" stroke-dasharray="none" stroke-dashoffset="0px" stop-color="rgb(0, 0, 0)" stop-opacity="1"/><path d="M 0.00 -234.82 L 7.84 -233.57 L 15.60 -229.84 L 23.19 -223.67 L 30.53 -215.12 L 37.55 -204.29 L 44.17 -191.29 L 50.32 -176.25 L 55.94 -159.34 L 60.96 -140.74 L 65.34 -120.64 L 69.02 -99.26 L 71.96 -76.82 L 74.15 -53.57 L 75.54 -29.75 L 76.13 -5.62 L 75.92 18.58 L 57.59 18.58 L 57.75 -5.62 L 57.30 -29.75 L 56.24 -53.57 L 54.59 -76.82 L 52.35 -99.26 L 49.56 -120.64 L 46.24 -140.74 L 42.43 -159.34 L 38.17 -176.25 L 33.51 -191.29 L 28.48 -204.29 L 23.16 -215.12 L 17.59 -223.67 L 11.83 -229.84 L 5.95 -233.57 L 0.00 -234.82 Z" fill="rgb(11, 11, 11)" stroke="rgb(11, 11, 11)" stroke-width="1.2px" stroke-linejoin="round" stroke-linecap="butt" opacity="1" fill-rule="nonzero" stroke-dasharray="none" stroke-dashoffset="0px" stop-color="rgb(0, 0, 0)" stop-opacity="1"/><path d="M 0.00 -234.82 L -7.84 -233.57 L -15.60 -229.84 L -23.19 -223.67 L -30.53 -215.12 L -37.55 -204.29 L -44.17 -191.29 L -50.32 -176.25 L -55.94 -159.34 L -60.96 -140.74 L -65.34 -120.64 L -69.02 -99.26 L -71.96 -76.82 L -74.15 -53.57 L -75.54 -29.75 L -76.13 -5.62 L -75.92 18.58 L -93.51 18.58 L -93.78 -5.62 L -93.05 -29.75 L -91.33 -53.57 L -88.65 -76.82 L -85.02 -99.26 L -80.48 -120.64 L -75.09 -140.74 L -68.91 -159.34 L -61.99 -176.25 L -54.41 -191.29 L -46.25 -204.29 L -37.61 -215.12 L -28.56 -223.67 L -19.21 -229.84 L -9.66 -233.57 L 0.00 -234.82 Z" fill="rgb(11, 11, 11)" stroke="rgb(11, 11, 11)" stroke-width="1.2px" stroke-linejoin="round" stroke-linecap="butt" opacity="1" fill-rule="nonzero" stroke-dasharray="none" stroke-dashoffset="0px" stop-color="rgb(0, 0, 0)" stop-opacity="1"/><path d="M 0.00 -234.82 L 9.66 -233.57 L 19.21 -229.84 L 28.56 -223.67 L 37.61 -215.12 L 46.25 -204.29 L 54.41 -191.29 L 61.99 -176.25 L 68.91 -159.34 L 75.09 -140.74 L 80.48 -120.64 L 85.02 -99.26 L 88.65 -76.82 L 91.33 -53.57 L 93.05 -29.75 L 93.78 -5.62 L 93.51 18.58 L 75.92 18.58 L 76.13 -5.62 L 75.54 -29.75 L 74.15 -53.57 L 71.96 -76.82 L 69.02 -99.26 L 65.34 -120.64 L 60.96 -140.74 L 55.94 -159.34 L 50.32 -176.25 L 44.17 -191.29 L 37.55 -204.29 L 30.53 -215.12 L 23.19 -223.67 L 15.60 -229.84 L 7.84 -233.57 L 0.00 -234.82 Z" fill="rgb(11, 11, 11)" stroke="rgb(11, 11, 11)" stroke-width="1.2px" stroke-linejoin="round" stroke-linecap="butt" opacity="1" fill-rule="nonzero" stroke-dasharray="none" stroke-dashoffset="0px" stop-color="rgb(0, 0, 0)" stop-opacity="1"/><path d="M 0.00 -234.82 L -9.66 -233.57 L -19.21 -229.84 L -28.56 -223.67 L -37.61 -215.12 L -46.25 -204.29 L -54.41 -191.29 L -61.99 -176.25 L -68.91 -159.34 L -75.09 -140.74 L -80.48 -120.64 L -85.02 -99.26 L -88.65 -76.82 L -91.33 -53.57 L -93.05 -29.75 L -93.78 -5.62 L -93.51 18.58 L -110.21 18.58 L -110.53 -5.62 L -109.67 -29.75 L -107.64 -53.57 L -104.47 -76.82 L -100.20 -99.26 L -94.85 -120.64 L -88.50 -140.74 L -81.21 -159.34 L -73.06 -176.25 L -64.13 -191.29 L -54.51 -204.29 L -44.32 -215.12 L -33.66 -223.67 L -22.64 -229.84 L -11.38 -233.57 L 0.00 -234.82 Z" fill="rgb(11, 11, 11)" stroke="rgb(11, 11, 11)" stroke-width="1.2px" stroke-linejoin="round" stroke-linecap="butt" opacity="1" fill-rule="nonzero" stroke-dasharray="none" stroke-dashoffset="0px" stop-color="rgb(0, 0, 0)" stop-opacity="1"/><path d="M 0.00 -234.82 L 11.38 -233.57 L 22.64 -229.84 L 33.66 -223.67 L 44.32 -215.12 L 54.51 -204.29 L 64.13 -191.29 L 73.06 -176.25 L 81.21 -159.34 L 88.50 -140.74 L 94.85 -120.64 L 100.20 -99.26 L 104.47 -76.82 L 107.64 -53.57 L 109.67 -29.75 L 110.53 -5.62 L 110.21 18.58 L 93.51 18.58 L 93.78 -5.62 L 93.05 -29.75 L 91.33 -53.57 L 88.65 -76.82 L 85.02 -99.26 L 80.48 -120.64 L 75.09 -140.74 L 68.91 -159.34 L 61.99 -176.25 L 54.41 -191.29 L 46.25 -204.29 L 37.61 -215.12 L 28.56 -223.67 L 19.21 -229.84 L 9.66 -233.57 L 0.00 -234.82 Z" fill="rgb(11, 11, 11)" stroke="rgb(11, 11, 11)" stroke-width="1.2px" stroke-linejoin="round" stroke-linecap="butt" opacity="1" fill-rule="nonzero" stroke-dasharray="none" stroke-dashoffset="0px" stop-color="rgb(0, 0, 0)" stop-opacity="1"/><path d="M 0.00 -234.82 L -11.38 -233.57 L -22.64 -229.84 L -33.66 -223.67 L -44.32 -215.12 L -54.51 -204.29 L -64.13 -191.29 L -73.06 -176.25 L -81.21 -159.34 L -88.50 -140.74 L -94.85 -120.64 L -100.20 -99.26 L -104.47 -76.82 L -107.64 -53.57 L -109.67 -29.75 L -110.53 -5.62 L -110.21 18.58 L -125.85 18.58 L -126.21 -5.62 L -125.23 -29.75 L -122.91 -53.57 L -119.30 -76.82 L -114.41 -99.26 L -108.31 -120.64 L -101.06 -140.74 L -92.73 -159.34 L -83.42 -176.25 L -73.22 -191.29 L -62.25 -204.29 L -50.61 -215.12 L -38.44 -223.67 L -25.85 -229.84 L -13.00 -233.57 L 0.00 -234.82 Z" fill="rgb(11, 11, 11)" stroke="rgb(11, 11, 11)" stroke-width="1.2px" stroke-linejoin="round" stroke-linecap="butt" opacity="1" fill-rule="nonzero" stroke-dasharray="none" stroke-dashoffset="0px" stop-color="rgb(0, 0, 0)" stop-opacity="1"/><path d="M 0.00 -234.82 L 13.00 -233.57 L 25.85 -229.84 L 38.44 -223.67 L 50.61 -215.12 L 62.25 -204.29 L 73.22 -191.29 L 83.42 -176.25 L 92.73 -159.34 L 101.06 -140.74 L 108.31 -120.64 L 114.41 -99.26 L 119.30 -76.82 L 122.91 -53.57 L 125.23 -29.75 L 126.21 -5.62 L 125.85 18.58 L 110.21 18.58 L 110.53 -5.62 L 109.67 -29.75 L 107.64 -53.57 L 104.47 -76.82 L 100.20 -99.26 L 94.85 -120.64 L 88.50 -140.74 L 81.21 -159.34 L 73.06 -176.25 L 64.13 -191.29 L 54.51 -204.29 L 44.32 -215.12 L 33.66 -223.67 L 22.64 -229.84 L 11.38 -233.57 L 0.00 -234.82 Z" fill="rgb(11, 11, 11)" stroke="rgb(11, 11, 11)" stroke-width="1.2px" stroke-linejoin="round" stroke-linecap="butt" opacity="1" fill-rule="nonzero" stroke-dasharray="none" stroke-dashoffset="0px" stop-color="rgb(0, 0, 0)" stop-opacity="1"/><path d="M 0.00 -234.82 L -13.00 -233.57 L -25.85 -229.84 L -38.44 -223.67 L -50.61 -215.12 L -62.25 -204.29 L -73.22 -191.29 L -83.42 -176.25 L -92.73 -159.34 L -101.06 -140.74 L -108.31 -120.64 L -114.41 -99.26 L -119.30 -76.82 L -122.91 -53.57 L -125.23 -29.75 L -126.21 -5.62 L -125.85 18.58 L -140.27 18.58 L -140.67 -5.62 L -139.58 -29.75 L -137.00 -53.57 L -132.97 -76.82 L -127.53 -99.26 L -120.72 -120.64 L -112.64 -140.74 L -103.36 -159.34 L -92.98 -176.25 L -81.62 -191.29 L -69.38 -204.29 L -56.41 -215.12 L -42.84 -223.67 L -28.82 -229.84 L -14.49 -233.57 L 0.00 -234.82 Z" fill="rgb(11, 11, 11)" stroke="rgb(11, 11, 11)" stroke-width="1.2px" stroke-linejoin="round" stroke-linecap="butt" opacity="1" fill-rule="nonzero" stroke-dasharray="none" stroke-dashoffset="0px" stop-color="rgb(0, 0, 0)" stop-opacity="1"/><path d="M 0.00 -234.82 L 14.49 -233.57 L 28.82 -229.84 L 42.84 -223.67 L 56.41 -215.12 L 69.38 -204.29 L 81.62 -191.29 L 92.98 -176.25 L 103.36 -159.34 L 112.64 -140.74 L 120.72 -120.64 L 127.53 -99.26 L 132.97 -76.82 L 137.00 -53.57 L 139.58 -29.75 L 140.67 -5.62 L 140.27 18.58 L 125.85 18.58 L 126.21 -5.62 L 125.23 -29.75 L 122.91 -53.57 L 119.30 -76.82 L 114.41 -99.26 L 108.31 -120.64 L 101.06 -140.74 L 92.73 -159.34 L 83.42 -176.25 L 73.22 -191.29 L 62.25 -204.29 L 50.61 -215.12 L 38.44 -223.67 L 25.85 -229.84 L 13.00 -233.57 L 0.00 -234.82 Z" fill="rgb(11, 11, 11)" stroke="rgb(11, 11, 11)" stroke-width="1.2px" stroke-linejoin="round" stroke-linecap="butt" opacity="1" fill-rule="nonzero" stroke-dasharray="none" stroke-dashoffset="0px" stop-color="rgb(0, 0, 0)" stop-opacity="1"/><path d="M 0.00 -234.82 L -14.49 -233.57 L -28.82 -229.84 L -42.84 -223.67 L -56.41 -215.12 L -69.38 -204.29 L -81.62 -191.29 L -92.98 -176.25 L -103.36 -159.34 L -112.64 -140.74 L -120.72 -120.64 L -127.53 -99.26 L -132.97 -76.82 L -137.00 -53.57 L -139.58 -29.75 L -140.67 -5.62 L -140.27 18.58 L -153.35 18.58 L -153.79 -5.62 L -152.59 -29.75 L -149.77 -53.57 L -145.36 -76.82 L -139.41 -99.26 L -131.98 -120.64 L -123.14 -140.74 L -112.99 -159.34 L -101.65 -176.25 L -89.22 -191.29 L -75.85 -204.29 L -61.67 -215.12 L -46.84 -223.67 L -31.50 -229.84 L -15.84 -233.57 L 0.00 -234.82 Z" fill="rgb(11, 11, 11)" stroke="rgb(11, 11, 11)" stroke-width="1.2px" stroke-linejoin="round" stroke-linecap="butt" opacity="1" fill-rule="nonzero" stroke-dasharray="none" stroke-dashoffset="0px" stop-color="rgb(0, 0, 0)" stop-opacity="1"/><path d="M 0.00 -234.82 L 15.84 -233.57 L 31.50 -229.84 L 46.84 -223.67 L 61.67 -215.12 L 75.85 -204.29 L 89.22 -191.29 L 101.65 -176.25 L 112.99 -159.34 L 123.14 -140.74 L 131.98 -120.64 L 139.41 -99.26 L 145.36 -76.82 L 149.77 -53.57 L 152.59 -29.75 L 153.79 -5.62 L 153.35 18.58 L 140.27 18.58 L 140.67 -5.62 L 139.58 -29.75 L 137.00 -53.57 L 132.97 -76.82 L 127.53 -99.26 L 120.72 -120.64 L 112.64 -140.74 L 103.36 -159.34 L 92.98 -176.25 L 81.62 -191.29 L 69.38 -204.29 L 56.41 -215.12 L 42.84 -223.67 L 28.82 -229.84 L 14.49 -233.57 L 0.00 -234.82 Z" fill="rgb(11, 11, 11)" stroke="rgb(11, 11, 11)" stroke-width="1.2px" stroke-linejoin="round" stroke-linecap="butt" opacity="1" fill-rule="nonzero" stroke-dasharray="none" stroke-dashoffset="0px" stop-color="rgb(0, 0, 0)" stop-opacity="1"/><path d="M 0.00 -234.82 L 17.03 -233.57 L 33.89 -229.84 L 50.38 -223.67 L 66.33 -215.12 L 81.59 -204.29 L 95.97 -191.29 L 109.34 -176.25 L 121.54 -159.34 L 132.45 -140.74 L 141.96 -120.64 L 149.95 -99.26 L 156.36 -76.82 L 161.10 -53.57 L 164.13 -29.75 L 165.42 -5.62 L 164.94 18.58 L 153.35 18.58 L 153.79 -5.62 L 152.59 -29.75 L 149.77 -53.57 L 145.36 -76.82 L 139.41 -99.26 L 131.98 -120.64 L 123.14 -140.74 L 112.99 -159.34 L 101.65 -176.25 L 89.22 -191.29 L 75.85 -204.29 L 61.67 -215.12 L 46.84 -223.67 L 31.50 -229.84 L 15.84 -233.57 L 0.00 -234.82 Z" fill="rgb(11, 11, 11)" stroke="rgb(11, 11, 11)" stroke-width="1.2px" stroke-linejoin="round" stroke-linecap="butt" opacity="1" fill-rule="nonzero" stroke-dasharray="none" stroke-dashoffset="0px" stop-color="rgb(0, 0, 0)" stop-opacity="1"/><path d="M 0.00 -234.82 L -15.84 -233.57 L -31.50 -229.84 L -46.84 -223.67 L -61.67 -215.12 L -75.85 -204.29 L -89.22 -191.29 L -101.65 -176.25 L -112.99 -159.34 L -123.14 -140.74 L -131.98 -120.64 L -139.41 -99.26 L -145.36 -76.82 L -149.77 -53.57 L -152.59 -29.75 L -153.79 -5.62 L -153.35 18.58 L -164.94 18.58 L -165.42 -5.62 L -164.13 -29.75 L -161.10 -53.57 L -156.36 -76.82 L -149.95 -99.26 L -141.96 -120.64 L -132.45 -140.74 L -121.54 -159.34 L -109.34 -176.25 L -95.97 -191.29 L -81.59 -204.29 L -66.33 -215.12 L -50.38 -223.67 L -33.89 -229.84 L -17.03 -233.57 L 0.00 -234.82 Z" fill="rgb(11, 11, 11)" stroke="rgb(11, 11, 11)" stroke-width="1.2px" stroke-linejoin="round" stroke-linecap="butt" opacity="1" fill-rule="nonzero" stroke-dasharray="none" stroke-dashoffset="0px" stop-color="rgb(0, 0, 0)" stop-opacity="1"/><path d="M 0.00 -234.82 L -17.03 -233.57 L -33.89 -229.84 L -50.38 -223.67 L -66.33 -215.12 L -81.59 -204.29 L -95.97 -191.29 L -109.34 -176.25 L -121.54 -159.34 L -132.45 -140.74 L -141.96 -120.64 L -149.95 -99.26 L -156.36 -76.82 L -161.10 -53.57 L -164.13 -29.75 L -165.42 -5.62 L -164.94 18.58 L -174.95 18.58 L -175.45 -5.62 L -174.09 -29.75 L -170.87 -53.57 L -165.84 -76.82 L -159.05 -99.26 L -150.57 -120.64 L -140.49 -140.74 L -128.91 -159.34 L -115.97 -176.25 L -101.79 -191.29 L -86.54 -204.29 L -70.36 -215.12 L -53.43 -223.67 L -35.94 -229.84 L -18.07 -233.57 L 0.00 -234.82 Z" fill="rgb(11, 11, 11)" stroke="rgb(11, 11, 11)" stroke-width="1.2px" stroke-linejoin="round" stroke-linecap="butt" opacity="1" fill-rule="nonzero" stroke-dasharray="none" stroke-dashoffset="0px" stop-color="rgb(0, 0, 0)" stop-opacity="1"/><path d="M 0.00 -234.82 L 18.07 -233.57 L 35.94 -229.84 L 53.43 -223.67 L 70.36 -215.12 L 86.54 -204.29 L 101.79 -191.29 L 115.97 -176.25 L 128.91 -159.34 L 140.49 -140.74 L 150.57 -120.64 L 159.05 -99.26 L 165.84 -76.82 L 170.87 -53.57 L 174.09 -29.75 L 175.45 -5.62 L 174.95 18.58 L 164.94 18.58 L 165.42 -5.62 L 164.13 -29.75 L 161.10 -53.57 L 156.36 -76.82 L 149.95 -99.26 L 141.96 -120.64 L 132.45 -140.74 L 121.54 -159.34 L 109.34 -176.25 L 95.97 -191.29 L 81.59 -204.29 L 66.33 -215.12 L 50.38 -223.67 L 33.89 -229.84 L 17.03 -233.57 L 0.00 -234.82 Z" fill="rgb(11, 11, 11)" stroke="rgb(11, 11, 11)" stroke-width="1.2px" stroke-linejoin="round" stroke-linecap="butt" opacity="1" fill-rule="nonzero" stroke-dasharray="none" stroke-dashoffset="0px" stop-color="rgb(0, 0, 0)" stop-opacity="1"/><path d="M 0.00 -234.82 L -18.07 -233.57 L -35.94 -229.84 L -53.43 -223.67 L -70.36 -215.12 L -86.54 -204.29 L -101.79 -191.29 L -115.97 -176.25 L -128.91 -159.34 L -140.49 -140.74 L -150.57 -120.64 L -159.05 -99.26 L -165.84 -76.82 L -170.87 -53.57 L -174.09 -29.75 L -175.45 -5.62 L -174.95 18.58 L -183.28 18.58 L -183.80 -5.62 L -182.37 -29.75 L -179.00 -53.57 L -173.73 -76.82 L -166.62 -99.26 L -157.73 -120.64 L -147.17 -140.74 L -135.05 -159.34 L -121.49 -176.25 L -106.64 -191.29 L -90.65 -204.29 L -73.71 -215.12 L -55.98 -223.67 L -37.65 -229.84 L -18.93 -233.57 L 0.00 -234.82 Z" fill="rgb(11, 11, 11)" stroke="rgb(11, 11, 11)" stroke-width="1.2px" stroke-linejoin="round" stroke-linecap="butt" opacity="1" fill-rule="nonzero" stroke-dasharray="none" stroke-dashoffset="0px" stop-color="rgb(0, 0, 0)" stop-opacity="1"/><path d="M 0.00 -234.82 L 18.93 -233.57 L 37.65 -229.84 L 55.98 -223.67 L 73.71 -215.12 L 90.65 -204.29 L 106.64 -191.29 L 121.49 -176.25 L 135.05 -159.34 L 147.17 -140.74 L 157.73 -120.64 L 166.62 -99.26 L 173.73 -76.82 L 179.00 -53.57 L 182.37 -29.75 L 183.80 -5.62 L 183.28 18.58 L 174.95 18.58 L 175.45 -5.62 L 174.09 -29.75 L 170.87 -53.57 L 165.84 -76.82 L 159.05 -99.26 L 150.57 -120.64 L 140.49 -140.74 L 128.91 -159.34 L 115.97 -176.25 L 101.79 -191.29 L 86.54 -204.29 L 70.36 -215.12 L 53.43 -223.67 L 35.94 -229.84 L 18.07 -233.57 L 0.00 -234.82 Z" fill="rgb(11, 11, 11)" stroke="rgb(11, 11, 11)" stroke-width="1.2px" stroke-linejoin="round" stroke-linecap="butt" opacity="1" fill-rule="nonzero" stroke-dasharray="none" stroke-dashoffset="0px" stop-color="rgb(0, 0, 0)" stop-opacity="1"/><path d="M 0.00 -234.82 L 19.60 -233.57 L 39.00 -229.84 L 57.98 -223.67 L 76.34 -215.12 L 93.90 -204.29 L 110.45 -191.29 L 125.84 -176.25 L 139.88 -159.34 L 152.44 -140.74 L 163.38 -120.64 L 172.58 -99.26 L 179.95 -76.82 L 185.41 -53.57 L 188.90 -29.75 L 190.38 -5.62 L 189.83 18.58 L 183.28 18.58 L 183.80 -5.62 L 182.37 -29.75 L 179.00 -53.57 L 173.73 -76.82 L 166.62 -99.26 L 157.73 -120.64 L 147.17 -140.74 L 135.05 -159.34 L 121.49 -176.25 L 106.64 -191.29 L 90.65 -204.29 L 73.71 -215.12 L 55.98 -223.67 L 37.65 -229.84 L 18.93 -233.57 L 0.00 -234.82 Z" fill="rgb(11, 11, 11)" stroke="rgb(11, 11, 11)" stroke-width="1.2px" stroke-linejoin="round" stroke-linecap="butt" opacity="1" fill-rule="nonzero" stroke-dasharray="none" stroke-dashoffset="0px" stop-color="rgb(0, 0, 0)" stop-opacity="1"/><path d="M 0.00 -234.82 L -18.93 -233.57 L -37.65 -229.84 L -55.98 -223.67 L -73.71 -215.12 L -90.65 -204.29 L -106.64 -191.29 L -121.49 -176.25 L -135.05 -159.34 L -147.17 -140.74 L -157.73 -120.64 L -166.62 -99.26 L -173.73 -76.82 L -179.00 -53.57 L -182.37 -29.75 L -183.80 -5.62 L -183.28 18.58 L -189.83 18.58 L -190.38 -5.62 L -188.90 -29.75 L -185.41 -53.57 L -179.95 -76.82 L -172.58 -99.26 L -163.38 -120.64 L -152.44 -140.74 L -139.88 -159.34 L -125.84 -176.25 L -110.45 -191.29 L -93.90 -204.29 L -76.34 -215.12 L -57.98 -223.67 L -39.00 -229.84 L -19.60 -233.57 L 0.00 -234.82 Z" fill="rgb(11, 11, 11)" stroke="rgb(11, 11, 11)" stroke-width="1.2px" stroke-linejoin="round" stroke-linecap="butt" opacity="1" fill-rule="nonzero" stroke-dasharray="none" stroke-dashoffset="0px" stop-color="rgb(0, 0, 0)" stop-opacity="1"/><path d="M 0.00 -234.82 L -19.60 -233.57 L -39.00 -229.84 L -57.98 -223.67 L -76.34 -215.12 L -93.90 -204.29 L -110.45 -191.29 L -125.84 -176.25 L -139.88 -159.34 L -152.44 -140.74 L -163.38 -120.64 L -172.58 -99.26 L -179.95 -76.82 L -185.41 -53.57 L -188.90 -29.75 L -190.38 -5.62 L -189.83 18.58 L -194.56 18.58 L -195.12 -5.62 L -193.60 -29.75 L -190.03 -53.57 L -184.44 -76.82 L -176.88 -99.26 L -167.45 -120.64 L -156.24 -140.74 L -143.37 -159.34 L -128.97 -176.25 L -113.21 -191.29 L -96.24 -204.29 L -78.25 -215.12 L -59.42 -223.67 L -39.97 -229.84 L -20.09 -233.57 L 0.00 -234.82 Z" fill="rgb(11, 11, 11)" stroke="rgb(11, 11, 11)" stroke-width="1.2px" stroke-linejoin="round" stroke-linecap="butt" opacity="1" fill-rule="nonzero" stroke-dasharray="none" stroke-dashoffset="0px" stop-color="rgb(0, 0, 0)" stop-opacity="1"/><path d="M 0.00 -234.82 L 20.09 -233.57 L 39.97 -229.84 L 59.42 -223.67 L 78.25 -215.12 L 96.24 -204.29 L 113.21 -191.29 L 128.97 -176.25 L 143.37 -159.34 L 156.24 -140.74 L 167.45 -120.64 L 176.88 -99.26 L 184.44 -76.82 L 190.03 -53.57 L 193.60 -29.75 L 195.12 -5.62 L 194.56 18.58 L 189.83 18.58 L 190.38 -5.62 L 188.90 -29.75 L 185.41 -53.57 L 179.95 -76.82 L 172.58 -99.26 L 163.38 -120.64 L 152.44 -140.74 L 139.88 -159.34 L 125.84 -176.25 L 110.45 -191.29 L 93.90 -204.29 L 76.34 -215.12 L 57.98 -223.67 L 39.00 -229.84 L 19.60 -233.57 L 0.00 -234.82 Z" fill="rgb(11, 11, 11)" stroke="rgb(11, 11, 11)" stroke-width="1.2px" stroke-linejoin="round" stroke-linecap="butt" opacity="1" fill-rule="nonzero" stroke-dasharray="none" stroke-dashoffset="0px" stop-color="rgb(0, 0, 0)" stop-opacity="1"/><path d="M 0.00 -234.82 L -20.09 -233.57 L -39.97 -229.84 L -59.42 -223.67 L -78.25 -215.12 L -96.24 -204.29 L -113.21 -191.29 L -128.97 -176.25 L -143.37 -159.34 L -156.24 -140.74 L -167.45 -120.64 L -176.88 -99.26 L -184.44 -76.82 L -190.03 -53.57 L -193.60 -29.75 L -195.12 -5.62 L -194.56 18.58 L -197.42 18.58 L -197.99 -5.62 L -196.45 -29.75 L -192.82 -53.57 L -187.14 -76.82 L -179.48 -99.26 L -169.91 -120.64 L -158.53 -140.74 L -145.47 -159.34 L -130.86 -176.25 L -114.87 -191.29 L -97.65 -204.29 L -79.40 -215.12 L -60.30 -223.67 L -40.56 -229.84 L -20.39 -233.57 L 0.00 -234.82 Z" fill="rgb(11, 11, 11)" stroke="rgb(11, 11, 11)" stroke-width="1.2px" stroke-linejoin="round" stroke-linecap="butt" opacity="1" fill-rule="nonzero" stroke-dasharray="none" stroke-dashoffset="0px" stop-color="rgb(0, 0, 0)" stop-opacity="1"/><path d="M 0.00 -234.82 L 20.39 -233.57 L 40.56 -229.84 L 60.30 -223.67 L 79.40 -215.12 L 97.65 -204.29 L 114.87 -191.29 L 130.86 -176.25 L 145.47 -159.34 L 158.53 -140.74 L 169.91 -120.64 L 179.48 -99.26 L 187.14 -76.82 L 192.82 -53.57 L 196.45 -29.75 L 197.99 -5.62 L 197.42 18.58 L 194.56 18.58 L 195.12 -5.62 L 193.60 -29.75 L 190.03 -53.57 L 184.44 -76.82 L 176.88 -99.26 L 167.45 -120.64 L 156.24 -140.74 L 143.37 -159.34 L 128.97 -176.25 L 113.21 -191.29 L 96.24 -204.29 L 78.25 -215.12 L 59.42 -223.67 L 39.97 -229.84 L 20.09 -233.57 L 0.00 -234.82 Z" fill="rgb(11, 11, 11)" stroke="rgb(11, 11, 11)" stroke-width="1.2px" stroke-linejoin="round" stroke-linecap="butt" opacity="1" fill-rule="nonzero" stroke-dasharray="none" stroke-dashoffset="0px" stop-color="rgb(0, 0, 0)" stop-opacity="1"/><path d="M 0.00 -234.82 L -20.39 -233.57 L -40.56 -229.84 L -60.30 -223.67 L -79.40 -215.12 L -97.65 -204.29 L -114.87 -191.29 L -130.86 -176.25 L -145.47 -159.34 L -158.53 -140.74 L -169.91 -120.64 L -179.48 -99.26 L -187.14 -76.82 L -192.82 -53.57 L -196.45 -29.75 L -197.99 -5.62 L -197.42 18.58 L -198.38 18.58 L -198.94 -5.62 L -197.40 -29.75 L -193.75 -53.57 L -188.05 -76.82 L -180.35 -99.26 L -170.73 -120.64 L -159.30 -140.74 L -146.18 -159.34 L -131.50 -176.25 L -115.42 -191.29 L -98.12 -204.29 L -79.78 -215.12 L -60.59 -223.67 L -40.75 -229.84 L -20.49 -233.57 L 0.00 -234.82 Z" fill="rgb(11, 11, 11)" stroke="rgb(11, 11, 11)" stroke-width="1.2px" stroke-linejoin="round" stroke-linecap="butt" opacity="1" fill-rule="nonzero" stroke-dasharray="none" stroke-dashoffset="0px" stop-color="rgb(0, 0, 0)" stop-opacity="1"/><path d="M 0.00 -234.82 L 20.49 -233.57 L 40.75 -229.84 L 60.59 -223.67 L 79.78 -215.12 L 98.12 -204.29 L 115.42 -191.29 L 131.50 -176.25 L 146.18 -159.34 L 159.30 -140.74 L 170.73 -120.64 L 180.35 -99.26 L 188.05 -76.82 L 193.75 -53.57 L 197.40 -29.75 L 198.94 -5.62 L 198.38 18.58 L 197.42 18.58 L 197.99 -5.62 L 196.45 -29.75 L 192.82 -53.57 L 187.14 -76.82 L 179.48 -99.26 L 169.91 -120.64 L 158.53 -140.74 L 145.47 -159.34 L 130.86 -176.25 L 114.87 -191.29 L 97.65 -204.29 L 79.40 -215.12 L 60.30 -223.67 L 40.56 -229.84 L 20.39 -233.57 L 0.00 -234.82 Z" fill="rgb(11, 11, 11)" stroke="rgb(11, 11, 11)" stroke-width="1.2px" stroke-linejoin="round" stroke-linecap="butt" opacity="1" fill-rule="nonzero" stroke-dasharray="none" stroke-dashoffset="0px" stop-color="rgb(0, 0, 0)" stop-opacity="1"/></g><g transform="translate(505.0452282192039 341.8022736875501) rotate(0.0433437100704248) scale(-1 1)" fill="rgb(0, 0, 0)" stroke="none" stroke-width="1px" stroke-linecap="butt" stroke-linejoin="miter" opacity="1" fill-rule="nonzero" stroke-dasharray="none" stroke-dashoffset="0px" stop-color="rgb(0, 0, 0)" stop-opacity="1"><path d="M 0 -185 C 102.17267875 -185 185 -102.17267875 185 0 C 185 102.17267875 102.17267875 185 0 185 C -102.17267875 185 -185 102.17267875 -185 0 C -185 -102.17267875 -102.17267875 -185 0 -185 Z" fill="rgb(255, 255, 255)" stroke="rgb(11, 11, 11)" stroke-width="15px" stroke-linecap="butt" stroke-linejoin="miter" opacity="1" fill-rule="nonzero" stroke-dasharray="none" stroke-dashoffset="0px" stop-color="rgb(0, 0, 0)" stop-opacity="1"/></g><g data-hair-layer="front" transform="translate(505.0452282192039 341.8022736875501) rotate(0.0433437100704248) scale(1)" fill="rgb(0, 0, 0)" stroke="none" stroke-width="1px" stroke-linecap="butt" stroke-linejoin="miter" opacity="1" fill-rule="nonzero" stroke-dasharray="none" stroke-dashoffset="0px" stop-color="rgb(0, 0, 0)" stop-opacity="1"><path d="M 0.00 -234.82 L 19.38 -233.69 L 38.58 -230.32 L 57.41 -224.74 L 75.69 -216.99 L 93.24 -207.17 L 109.89 -195.35 L 125.49 -181.66 L 139.89 -166.22 L 152.94 -149.19 L 164.52 -130.72 L 174.52 -111.00 L 182.84 -90.21 L 189.41 -68.56 L 194.16 -46.24 L 197.05 -23.49 L 198.04 -0.50 L 198.38 18.58 L 198.94 -5.62 L 197.40 -29.75 L 193.75 -53.57 L 188.05 -76.82 L 180.35 -99.26 L 170.73 -120.64 L 159.30 -140.74 L 146.18 -159.34 L 131.50 -176.25 L 115.42 -191.29 L 98.12 -204.29 L 79.78 -215.12 L 60.59 -223.67 L 40.75 -229.84 L 20.49 -233.57 L 0.00 -234.82 Z" fill="rgb(11, 11, 11)" stroke="rgb(11, 11, 11)" stroke-width="1.2px" stroke-linejoin="round" stroke-linecap="butt" opacity="1" fill-rule="nonzero" stroke-dasharray="none" stroke-dashoffset="0px" stop-color="rgb(0, 0, 0)" stop-opacity="1"/><path d="M 0.00 -234.82 L -20.49 -233.57 L -40.75 -229.84 L -60.59 -223.67 L -79.78 -215.12 L -98.12 -204.29 L -115.42 -191.29 L -131.50 -176.25 L -146.18 -159.34 L -159.30 -140.74 L -170.73 -120.64 L -180.35 -99.26 L -188.05 -76.82 L -193.75 -53.57 L -197.40 -29.75 L -198.94 -5.62 L -198.38 18.58 L -198.04 -0.50 L -197.05 -23.49 L -194.16 -46.24 L -189.41 -68.56 L -182.84 -90.21 L -174.52 -111.00 L -164.52 -130.72 L -152.94 -149.19 L -139.89 -166.22 L -125.49 -181.66 L -109.89 -195.35 L -93.24 -207.17 L -75.69 -216.99 L -57.41 -224.74 L -38.58 -230.32 L -19.38 -233.69 L 0.00 -234.82 Z" fill="rgb(11, 11, 11)" stroke="rgb(11, 11, 11)" stroke-width="1.2px" stroke-linejoin="round" stroke-linecap="butt" opacity="1" fill-rule="nonzero" stroke-dasharray="none" stroke-dashoffset="0px" stop-color="rgb(0, 0, 0)" stop-opacity="1"/><path d="M 0.00 -234.82 L -19.38 -233.69 L -38.58 -230.32 L -57.41 -224.74 L -75.69 -216.99 L -93.24 -207.17 L -109.89 -195.35 L -125.49 -181.66 L -139.89 -166.22 L -152.94 -149.19 L -164.52 -130.72 L -174.52 -111.00 L -182.84 -90.21 L -189.41 -68.56 L -194.16 -46.24 L -197.05 -23.49 L -198.04 -0.50 L -194.51 -19.40 L -192.17 -41.05 L -188.17 -62.35 L -182.55 -83.10 L -175.34 -103.14 L -166.62 -122.29 L -156.46 -140.37 L -144.95 -157.25 L -132.19 -172.77 L -118.28 -186.79 L -103.35 -199.20 L -87.53 -209.88 L -70.95 -218.76 L -53.75 -225.74 L -36.10 -230.77 L -18.13 -233.81 L 0.00 -234.82 Z" fill="rgb(11, 11, 11)" stroke="rgb(11, 11, 11)" stroke-width="1.2px" stroke-linejoin="round" stroke-linecap="butt" opacity="1" fill-rule="nonzero" stroke-dasharray="none" stroke-dashoffset="0px" stop-color="rgb(0, 0, 0)" stop-opacity="1"/><path d="M 0.00 -234.82 L 18.13 -233.81 L 36.10 -230.77 L 53.75 -225.74 L 70.95 -218.76 L 87.53 -209.88 L 103.35 -199.20 L 118.28 -186.79 L 132.19 -172.77 L 144.95 -157.25 L 156.46 -140.37 L 166.62 -122.29 L 175.34 -103.14 L 182.55 -83.10 L 188.17 -62.35 L 192.17 -41.05 L 194.51 -19.40 L 198.04 -0.50 L 197.05 -23.49 L 194.16 -46.24 L 189.41 -68.56 L 182.84 -90.21 L 174.52 -111.00 L 164.52 -130.72 L 152.94 -149.19 L 139.89 -166.22 L 125.49 -181.66 L 109.89 -195.35 L 93.24 -207.17 L 75.69 -216.99 L 57.41 -224.74 L 38.58 -230.32 L 19.38 -233.69 L 0.00 -234.82 Z" fill="rgb(11, 11, 11)" stroke="rgb(11, 11, 11)" stroke-width="1.2px" stroke-linejoin="round" stroke-linecap="butt" opacity="1" fill-rule="nonzero" stroke-dasharray="none" stroke-dashoffset="0px" stop-color="rgb(0, 0, 0)" stop-opacity="1"/><path d="M 0.00 -234.82 L -18.13 -233.81 L -36.10 -230.77 L -53.75 -225.74 L -70.95 -218.76 L -87.53 -209.88 L -103.35 -199.20 L -118.28 -186.79 L -132.19 -172.77 L -144.95 -157.25 L -156.46 -140.37 L -166.62 -122.29 L -175.34 -103.14 L -182.55 -83.10 L -188.17 -62.35 L -192.17 -41.05 L -194.51 -19.40 L -187.95 -37.81 L -184.52 -58.05 L -179.66 -77.84 L -173.42 -97.02 L -165.82 -115.45 L -156.95 -132.99 L -146.85 -149.50 L -135.62 -164.84 L -123.34 -178.91 L -110.10 -191.60 L -96.01 -202.79 L -81.17 -212.42 L -65.70 -220.40 L -49.73 -226.67 L -33.37 -231.19 L -16.75 -233.91 L 0.00 -234.82 Z" fill="rgb(11, 11, 11)" stroke="rgb(11, 11, 11)" stroke-width="1.2px" stroke-linejoin="round" stroke-linecap="butt" opacity="1" fill-rule="nonzero" stroke-dasharray="none" stroke-dashoffset="0px" stop-color="rgb(0, 0, 0)" stop-opacity="1"/><path d="M 0.00 -234.82 L 16.75 -233.91 L 33.37 -231.19 L 49.73 -226.67 L 65.70 -220.40 L 81.17 -212.42 L 96.01 -202.79 L 110.10 -191.60 L 123.34 -178.91 L 135.62 -164.84 L 146.85 -149.50 L 156.95 -132.99 L 165.82 -115.45 L 173.42 -97.02 L 179.66 -77.84 L 184.52 -58.05 L 187.95 -37.81 L 194.51 -19.40 L 192.17 -41.05 L 188.17 -62.35 L 182.55 -83.10 L 175.34 -103.14 L 166.62 -122.29 L 156.46 -140.37 L 144.95 -157.25 L 132.19 -172.77 L 118.28 -186.79 L 103.35 -199.20 L 87.53 -209.88 L 70.95 -218.76 L 53.75 -225.74 L 36.10 -230.77 L 18.13 -233.81 L 0.00 -234.82 Z" fill="rgb(11, 11, 11)" stroke="rgb(11, 11, 11)" stroke-width="1.2px" stroke-linejoin="round" stroke-linecap="butt" opacity="1" fill-rule="nonzero" stroke-dasharray="none" stroke-dashoffset="0px" stop-color="rgb(0, 0, 0)" stop-opacity="1"/><path d="M 0.00 -234.82 L -16.75 -233.91 L -33.37 -231.19 L -49.73 -226.67 L -65.70 -220.40 L -81.17 -212.42 L -96.01 -202.79 L -110.10 -191.60 L -123.34 -178.91 L -135.62 -164.84 L -146.85 -149.50 L -156.95 -132.99 L -165.82 -115.45 L -173.42 -97.02 L -179.66 -77.84 L -184.52 -58.05 L -187.95 -37.81 L -178.65 -55.46 L -174.42 -74.24 L -168.98 -92.52 L -162.37 -110.15 L -154.63 -127.02 L -145.83 -143.00 L -136.01 -158.00 L -125.25 -171.90 L -113.62 -184.61 L -101.20 -196.04 L -88.09 -206.11 L -74.36 -214.76 L -60.11 -221.91 L -45.45 -227.53 L -30.48 -231.57 L -15.29 -234.01 L 0.00 -234.82 Z" fill="rgb(11, 11, 11)" stroke="rgb(11, 11, 11)" stroke-width="1.2px" stroke-linejoin="round" stroke-linecap="butt" opacity="1" fill-rule="nonzero" stroke-dasharray="none" stroke-dashoffset="0px" stop-color="rgb(0, 0, 0)" stop-opacity="1"/><path d="M 0.00 -234.82 L 15.29 -234.01 L 30.48 -231.57 L 45.45 -227.53 L 60.11 -221.91 L 74.36 -214.76 L 88.09 -206.11 L 101.20 -196.04 L 113.62 -184.61 L 125.25 -171.90 L 136.01 -158.00 L 145.83 -143.00 L 154.63 -127.02 L 162.37 -110.15 L 168.98 -92.52 L 174.42 -74.24 L 178.65 -55.46 L 187.95 -37.81 L 184.52 -58.05 L 179.66 -77.84 L 173.42 -97.02 L 165.82 -115.45 L 156.95 -132.99 L 146.85 -149.50 L 135.62 -164.84 L 123.34 -178.91 L 110.10 -191.60 L 96.01 -202.79 L 81.17 -212.42 L 65.70 -220.40 L 49.73 -226.67 L 33.37 -231.19 L 16.75 -233.91 L 0.00 -234.82 Z" fill="rgb(11, 11, 11)" stroke="rgb(11, 11, 11)" stroke-width="1.2px" stroke-linejoin="round" stroke-linecap="butt" opacity="1" fill-rule="nonzero" stroke-dasharray="none" stroke-dashoffset="0px" stop-color="rgb(0, 0, 0)" stop-opacity="1"/><path d="M 0.00 -234.82 L -15.29 -234.01 L -30.48 -231.57 L -45.45 -227.53 L -60.11 -221.91 L -74.36 -214.76 L -88.09 -206.11 L -101.20 -196.04 L -113.62 -184.61 L -125.25 -171.90 L -136.01 -158.00 L -145.83 -143.00 L -154.63 -127.02 L -162.37 -110.15 L -168.98 -92.52 L -174.42 -74.24 L -178.65 -55.46 L -167.03 -72.09 L -162.28 -89.43 L -156.52 -106.22 L -149.80 -122.35 L -142.15 -137.72 L -133.62 -152.24 L -124.26 -165.82 L -114.14 -178.38 L -103.31 -189.83 L -91.84 -200.10 L -79.80 -209.14 L -67.27 -216.89 L -54.32 -223.29 L -41.04 -228.31 L -27.50 -231.92 L -13.79 -234.09 L 0.00 -234.82 Z" fill="rgb(11, 11, 11)" stroke="rgb(11, 11, 11)" stroke-width="1.2px" stroke-linejoin="round" stroke-linecap="butt" opacity="1" fill-rule="nonzero" stroke-dasharray="none" stroke-dashoffset="0px" stop-color="rgb(0, 0, 0)" stop-opacity="1"/><path d="M 0.00 -234.82 L 13.79 -234.09 L 27.50 -231.92 L 41.04 -228.31 L 54.32 -223.29 L 67.27 -216.89 L 79.80 -209.14 L 91.84 -200.10 L 103.31 -189.83 L 114.14 -178.38 L 124.26 -165.82 L 133.62 -152.24 L 142.15 -137.72 L 149.80 -122.35 L 156.52 -106.22 L 162.28 -89.43 L 167.03 -72.09 L 178.65 -55.46 L 174.42 -74.24 L 168.98 -92.52 L 162.37 -110.15 L 154.63 -127.02 L 145.83 -143.00 L 136.01 -158.00 L 125.25 -171.90 L 113.62 -184.61 L 101.20 -196.04 L 88.09 -206.11 L 74.36 -214.76 L 60.11 -221.91 L 45.45 -227.53 L 30.48 -231.57 L 15.29 -234.01 L 0.00 -234.82 Z" fill="rgb(11, 11, 11)" stroke="rgb(11, 11, 11)" stroke-width="1.2px" stroke-linejoin="round" stroke-linecap="butt" opacity="1" fill-rule="nonzero" stroke-dasharray="none" stroke-dashoffset="0px" stop-color="rgb(0, 0, 0)" stop-opacity="1"/><path d="M 0.00 -234.82 L -13.79 -234.09 L -27.50 -231.92 L -41.04 -228.31 L -54.32 -223.29 L -67.27 -216.89 L -79.80 -209.14 L -91.84 -200.10 L -103.31 -189.83 L -114.14 -178.38 L -124.26 -165.82 L -133.62 -152.24 L -142.15 -137.72 L -149.80 -122.35 L -156.52 -106.22 L -162.28 -89.43 L -167.03 -72.09 L -153.54 -87.52 L -148.54 -103.45 L -142.72 -118.82 L -136.11 -133.52 L -128.75 -147.50 L -120.68 -160.65 L -111.94 -172.92 L -102.59 -184.24 L -92.67 -194.54 L -82.23 -203.77 L -71.35 -211.87 L -60.07 -218.80 L -48.46 -224.52 L -36.58 -229.01 L -24.50 -232.23 L -12.28 -234.17 L 0.00 -234.82 Z" fill="rgb(11, 11, 11)" stroke="rgb(11, 11, 11)" stroke-width="1.2px" stroke-linejoin="round" stroke-linecap="butt" opacity="1" fill-rule="nonzero" stroke-dasharray="none" stroke-dashoffset="0px" stop-color="rgb(0, 0, 0)" stop-opacity="1"/><path d="M 0.00 -234.82 L 12.28 -234.17 L 24.50 -232.23 L 36.58 -229.01 L 48.46 -224.52 L 60.07 -218.80 L 71.35 -211.87 L 82.23 -203.77 L 92.67 -194.54 L 102.59 -184.24 L 111.94 -172.92 L 120.68 -160.65 L 128.75 -147.50 L 136.11 -133.52 L 142.72 -118.82 L 148.54 -103.45 L 153.54 -87.52 L 167.03 -72.09 L 162.28 -89.43 L 156.52 -106.22 L 149.80 -122.35 L 142.15 -137.72 L 133.62 -152.24 L 124.26 -165.82 L 114.14 -178.38 L 103.31 -189.83 L 91.84 -200.10 L 79.80 -209.14 L 67.27 -216.89 L 54.32 -223.29 L 41.04 -228.31 L 27.50 -231.92 L 13.79 -234.09 L 0.00 -234.82 Z" fill="rgb(11, 11, 11)" stroke="rgb(11, 11, 11)" stroke-width="1.2px" stroke-linejoin="round" stroke-linecap="butt" opacity="1" fill-rule="nonzero" stroke-dasharray="none" stroke-dashoffset="0px" stop-color="rgb(0, 0, 0)" stop-opacity="1"/><path d="M 0.00 -234.82 L -12.28 -234.17 L -24.50 -232.23 L -36.58 -229.01 L -48.46 -224.52 L -60.07 -218.80 L -71.35 -211.87 L -82.23 -203.77 L -92.67 -194.54 L -102.59 -184.24 L -111.94 -172.92 L -120.68 -160.65 L -128.75 -147.50 L -136.11 -133.52 L -142.72 -118.82 L -148.54 -103.45 L -153.54 -87.52 L -138.69 -101.58 L -133.68 -116.18 L -128.01 -130.21 L -121.71 -143.60 L -114.81 -156.28 L -107.35 -168.19 L -99.35 -179.27 L -90.87 -189.47 L -81.94 -198.74 L -72.60 -207.02 L -62.91 -214.29 L -52.90 -220.50 L -42.64 -225.62 L -32.16 -229.63 L -21.53 -232.51 L -10.79 -234.24 L 0.00 -234.82 Z" fill="rgb(11, 11, 11)" stroke="rgb(11, 11, 11)" stroke-width="1.2px" stroke-linejoin="round" stroke-linecap="butt" opacity="1" fill-rule="nonzero" stroke-dasharray="none" stroke-dashoffset="0px" stop-color="rgb(0, 0, 0)" stop-opacity="1"/><path d="M 0.00 -234.82 L 10.79 -234.24 L 21.53 -232.51 L 32.16 -229.63 L 42.64 -225.62 L 52.90 -220.50 L 62.91 -214.29 L 72.60 -207.02 L 81.94 -198.74 L 90.87 -189.47 L 99.35 -179.27 L 107.35 -168.19 L 114.81 -156.28 L 121.71 -143.60 L 128.01 -130.21 L 133.68 -116.18 L 138.69 -101.58 L 153.54 -87.52 L 148.54 -103.45 L 142.72 -118.82 L 136.11 -133.52 L 128.75 -147.50 L 120.68 -160.65 L 111.94 -172.92 L 102.59 -184.24 L 92.67 -194.54 L 82.23 -203.77 L 71.35 -211.87 L 60.07 -218.80 L 48.46 -224.52 L 36.58 -229.01 L 24.50 -232.23 L 12.28 -234.17 L 0.00 -234.82 Z" fill="rgb(11, 11, 11)" stroke="rgb(11, 11, 11)" stroke-width="1.2px" stroke-linejoin="round" stroke-linecap="butt" opacity="1" fill-rule="nonzero" stroke-dasharray="none" stroke-dashoffset="0px" stop-color="rgb(0, 0, 0)" stop-opacity="1"/><path d="M 0.00 -234.82 L -10.79 -234.24 L -21.53 -232.51 L -32.16 -229.63 L -42.64 -225.62 L -52.90 -220.50 L -62.91 -214.29 L -72.60 -207.02 L -81.94 -198.74 L -90.87 -189.47 L -99.35 -179.27 L -107.35 -168.19 L -114.81 -156.28 L -121.71 -143.60 L -128.01 -130.21 L -133.68 -116.18 L -138.69 -101.58 L -122.97 -114.16 L -118.15 -127.53 L -112.82 -140.34 L -106.98 -152.53 L -100.68 -164.05 L -93.93 -174.84 L -86.77 -184.87 L -79.22 -194.07 L -71.32 -202.42 L -63.11 -209.88 L -54.62 -216.41 L -45.89 -221.98 L -36.96 -226.58 L -27.86 -230.17 L -18.64 -232.75 L -9.34 -234.30 L 0.00 -234.82 Z" fill="rgb(11, 11, 11)" stroke="rgb(11, 11, 11)" stroke-width="1.2px" stroke-linejoin="round" stroke-linecap="butt" opacity="1" fill-rule="nonzero" stroke-dasharray="none" stroke-dashoffset="0px" stop-color="rgb(0, 0, 0)" stop-opacity="1"/><path d="M 0.00 -234.82 L 9.34 -234.30 L 18.64 -232.75 L 27.86 -230.17 L 36.96 -226.58 L 45.89 -221.98 L 54.62 -216.41 L 63.11 -209.88 L 71.32 -202.42 L 79.22 -194.07 L 86.77 -184.87 L 93.93 -174.84 L 100.68 -164.05 L 106.98 -152.53 L 112.82 -140.34 L 118.15 -127.53 L 122.97 -114.16 L 138.69 -101.58 L 133.68 -116.18 L 128.01 -130.21 L 121.71 -143.60 L 114.81 -156.28 L 107.35 -168.19 L 99.35 -179.27 L 90.87 -189.47 L 81.94 -198.74 L 72.60 -207.02 L 62.91 -214.29 L 52.90 -220.50 L 42.64 -225.62 L 32.16 -229.63 L 21.53 -232.51 L 10.79 -234.24 L 0.00 -234.82 Z" fill="rgb(11, 11, 11)" stroke="rgb(11, 11, 11)" stroke-width="1.2px" stroke-linejoin="round" stroke-linecap="butt" opacity="1" fill-rule="nonzero" stroke-dasharray="none" stroke-dashoffset="0px" stop-color="rgb(0, 0, 0)" stop-opacity="1"/><path d="M 0.00 -234.82 L -9.34 -234.30 L -18.64 -232.75 L -27.86 -230.17 L -36.96 -226.58 L -45.89 -221.98 L -54.62 -216.41 L -63.11 -209.88 L -71.32 -202.42 L -79.22 -194.07 L -86.77 -184.87 L -93.93 -174.84 L -100.68 -164.05 L -106.98 -152.53 L -112.82 -140.34 L -118.15 -127.53 L -122.97 -114.16 L -106.80 -125.21 L -102.35 -137.47 L -97.49 -149.19 L -92.24 -160.31 L -86.63 -170.80 L -80.68 -180.61 L -74.40 -189.71 L -67.83 -198.05 L -60.99 -205.60 L -53.91 -212.34 L -46.61 -218.23 L -39.13 -223.26 L -31.49 -227.40 L -23.73 -230.64 L -15.87 -232.96 L -7.95 -234.35 L 0.00 -234.82 Z" fill="rgb(11, 11, 11)" stroke="rgb(11, 11, 11)" stroke-width="1.2px" stroke-linejoin="round" stroke-linecap="butt" opacity="1" fill-rule="nonzero" stroke-dasharray="none" stroke-dashoffset="0px" stop-color="rgb(0, 0, 0)" stop-opacity="1"/><path d="M 0.00 -234.82 L 7.95 -234.35 L 15.87 -232.96 L 23.73 -230.64 L 31.49 -227.40 L 39.13 -223.26 L 46.61 -218.23 L 53.91 -212.34 L 60.99 -205.60 L 67.83 -198.05 L 74.40 -189.71 L 80.68 -180.61 L 86.63 -170.80 L 92.24 -160.31 L 97.49 -149.19 L 102.35 -137.47 L 106.80 -125.21 L 122.97 -114.16 L 118.15 -127.53 L 112.82 -140.34 L 106.98 -152.53 L 100.68 -164.05 L 93.93 -174.84 L 86.77 -184.87 L 79.22 -194.07 L 71.32 -202.42 L 63.11 -209.88 L 54.62 -216.41 L 45.89 -221.98 L 36.96 -226.58 L 27.86 -230.17 L 18.64 -232.75 L 9.34 -234.30 L 0.00 -234.82 Z" fill="rgb(11, 11, 11)" stroke="rgb(11, 11, 11)" stroke-width="1.2px" stroke-linejoin="round" stroke-linecap="butt" opacity="1" fill-rule="nonzero" stroke-dasharray="none" stroke-dashoffset="0px" stop-color="rgb(0, 0, 0)" stop-opacity="1"/><path d="M 0.00 -234.82 L -7.95 -234.35 L -15.87 -232.96 L -23.73 -230.64 L -31.49 -227.40 L -39.13 -223.26 L -46.61 -218.23 L -53.91 -212.34 L -60.99 -205.60 L -67.83 -198.05 L -74.40 -189.71 L -80.68 -180.61 L -86.63 -170.80 L -92.24 -160.31 L -97.49 -149.19 L -102.35 -137.47 L -106.80 -125.21 L -90.56 -134.70 L -86.60 -145.99 L -82.32 -156.75 L -77.75 -166.95 L -72.89 -176.55 L -67.78 -185.52 L -62.42 -193.82 L -56.84 -201.42 L -51.05 -208.29 L -45.08 -214.42 L -38.94 -219.77 L -32.67 -224.33 L -26.28 -228.09 L -19.79 -231.03 L -13.23 -233.13 L -6.63 -234.40 L 0.00 -234.82 Z" fill="rgb(11, 11, 11)" stroke="rgb(11, 11, 11)" stroke-width="1.2px" stroke-linejoin="round" stroke-linecap="butt" opacity="1" fill-rule="nonzero" stroke-dasharray="none" stroke-dashoffset="0px" stop-color="rgb(0, 0, 0)" stop-opacity="1"/><path d="M 0.00 -234.82 L 6.63 -234.40 L 13.23 -233.13 L 19.79 -231.03 L 26.28 -228.09 L 32.67 -224.33 L 38.94 -219.77 L 45.08 -214.42 L 51.05 -208.29 L 56.84 -201.42 L 62.42 -193.82 L 67.78 -185.52 L 72.89 -176.55 L 77.75 -166.95 L 82.32 -156.75 L 86.60 -145.99 L 90.56 -134.70 L 106.80 -125.21 L 102.35 -137.47 L 97.49 -149.19 L 92.24 -160.31 L 86.63 -170.80 L 80.68 -180.61 L 74.40 -189.71 L 67.83 -198.05 L 60.99 -205.60 L 53.91 -212.34 L 46.61 -218.23 L 39.13 -223.26 L 31.49 -227.40 L 23.73 -230.64 L 15.87 -232.96 L 7.95 -234.35 L 0.00 -234.82 Z" fill="rgb(11, 11, 11)" stroke="rgb(11, 11, 11)" stroke-width="1.2px" stroke-linejoin="round" stroke-linecap="butt" opacity="1" fill-rule="nonzero" stroke-dasharray="none" stroke-dashoffset="0px" stop-color="rgb(0, 0, 0)" stop-opacity="1"/><path d="M 0.00 -234.82 L -6.63 -234.40 L -13.23 -233.13 L -19.79 -231.03 L -26.28 -228.09 L -32.67 -224.33 L -38.94 -219.77 L -45.08 -214.42 L -51.05 -208.29 L -56.84 -201.42 L -62.42 -193.82 L -67.78 -185.52 L -72.89 -176.55 L -77.75 -166.95 L -82.32 -156.75 L -86.60 -145.99 L -90.56 -134.70 L -74.52 -142.63 L -71.13 -153.09 L -67.51 -163.05 L -63.66 -172.47 L -59.60 -181.33 L -55.35 -189.58 L -50.92 -197.22 L -46.32 -204.20 L -41.56 -210.51 L -36.67 -216.13 L -31.66 -221.04 L -26.54 -225.22 L -21.34 -228.66 L -16.07 -231.35 L -10.74 -233.28 L -5.38 -234.43 L 0.00 -234.82 Z" fill="rgb(11, 11, 11)" stroke="rgb(11, 11, 11)" stroke-width="1.2px" stroke-linejoin="round" stroke-linecap="butt" opacity="1" fill-rule="nonzero" stroke-dasharray="none" stroke-dashoffset="0px" stop-color="rgb(0, 0, 0)" stop-opacity="1"/><path d="M 0.00 -234.82 L 5.38 -234.43 L 10.74 -233.28 L 16.07 -231.35 L 21.34 -228.66 L 26.54 -225.22 L 31.66 -221.04 L 36.67 -216.13 L 41.56 -210.51 L 46.32 -204.20 L 50.92 -197.22 L 55.35 -189.58 L 59.60 -181.33 L 63.66 -172.47 L 67.51 -163.05 L 71.13 -153.09 L 74.52 -142.63 L 90.56 -134.70 L 86.60 -145.99 L 82.32 -156.75 L 77.75 -166.95 L 72.89 -176.55 L 67.78 -185.52 L 62.42 -193.82 L 56.84 -201.42 L 51.05 -208.29 L 45.08 -214.42 L 38.94 -219.77 L 32.67 -224.33 L 26.28 -228.09 L 19.79 -231.03 L 13.23 -233.13 L 6.63 -234.40 L 0.00 -234.82 Z" fill="rgb(11, 11, 11)" stroke="rgb(11, 11, 11)" stroke-width="1.2px" stroke-linejoin="round" stroke-linecap="butt" opacity="1" fill-rule="nonzero" stroke-dasharray="none" stroke-dashoffset="0px" stop-color="rgb(0, 0, 0)" stop-opacity="1"/><path d="M 0.00 -234.82 L -5.38 -234.43 L -10.74 -233.28 L -16.07 -231.35 L -21.34 -228.66 L -26.54 -225.22 L -31.66 -221.04 L -36.67 -216.13 L -41.56 -210.51 L -46.32 -204.20 L -50.92 -197.22 L -55.35 -189.58 L -59.60 -181.33 L -63.66 -172.47 L -67.51 -163.05 L -71.13 -153.09 L -74.52 -142.63 L -58.85 -149.04 L -56.09 -158.82 L -53.17 -168.12 L -50.08 -176.91 L -46.83 -185.16 L -43.45 -192.85 L -39.93 -199.95 L -36.30 -206.43 L -32.55 -212.29 L -28.70 -217.51 L -24.76 -222.06 L -20.75 -225.93 L -16.68 -229.12 L -12.55 -231.61 L -8.39 -233.39 L -4.20 -234.46 L 0.00 -234.82 Z" fill="rgb(11, 11, 11)" stroke="rgb(11, 11, 11)" stroke-width="1.2px" stroke-linejoin="round" stroke-linecap="butt" opacity="1" fill-rule="nonzero" stroke-dasharray="none" stroke-dashoffset="0px" stop-color="rgb(0, 0, 0)" stop-opacity="1"/><path d="M 0.00 -234.82 L 4.20 -234.46 L 8.39 -233.39 L 12.55 -231.61 L 16.68 -229.12 L 20.75 -225.93 L 24.76 -222.06 L 28.70 -217.51 L 32.55 -212.29 L 36.30 -206.43 L 39.93 -199.95 L 43.45 -192.85 L 46.83 -185.16 L 50.08 -176.91 L 53.17 -168.12 L 56.09 -158.82 L 58.85 -149.04 L 74.52 -142.63 L 71.13 -153.09 L 67.51 -163.05 L 63.66 -172.47 L 59.60 -181.33 L 55.35 -189.58 L 50.92 -197.22 L 46.32 -204.20 L 41.56 -210.51 L 36.67 -216.13 L 31.66 -221.04 L 26.54 -225.22 L 21.34 -228.66 L 16.07 -231.35 L 10.74 -233.28 L 5.38 -234.43 L 0.00 -234.82 Z" fill="rgb(11, 11, 11)" stroke="rgb(11, 11, 11)" stroke-width="1.2px" stroke-linejoin="round" stroke-linecap="butt" opacity="1" fill-rule="nonzero" stroke-dasharray="none" stroke-dashoffset="0px" stop-color="rgb(0, 0, 0)" stop-opacity="1"/><path d="M 0.00 -234.82 L -4.20 -234.46 L -8.39 -233.39 L -12.55 -231.61 L -16.68 -229.12 L -20.75 -225.93 L -24.76 -222.06 L -28.70 -217.51 L -32.55 -212.29 L -36.30 -206.43 L -39.93 -199.95 L -43.45 -192.85 L -46.83 -185.16 L -50.08 -176.91 L -53.17 -168.12 L -56.09 -158.82 L -58.85 -149.04 L -43.62 -153.96 L -41.53 -163.22 L -39.32 -172.01 L -37.01 -180.31 L -34.58 -188.09 L -32.06 -195.34 L -29.44 -202.03 L -26.74 -208.14 L -23.97 -213.65 L -21.13 -218.55 L -18.22 -222.83 L -15.26 -226.47 L -12.26 -229.47 L -9.23 -231.80 L -6.17 -233.48 L -3.09 -234.48 L 0.00 -234.82 Z" fill="rgb(11, 11, 11)" stroke="rgb(11, 11, 11)" stroke-width="1.2px" stroke-linejoin="round" stroke-linecap="butt" opacity="1" fill-rule="nonzero" stroke-dasharray="none" stroke-dashoffset="0px" stop-color="rgb(0, 0, 0)" stop-opacity="1"/><path d="M 0.00 -234.82 L 3.09 -234.48 L 6.17 -233.48 L 9.23 -231.80 L 12.26 -229.47 L 15.26 -226.47 L 18.22 -222.83 L 21.13 -218.55 L 23.97 -213.65 L 26.74 -208.14 L 29.44 -202.03 L 32.06 -195.34 L 34.58 -188.09 L 37.01 -180.31 L 39.32 -172.01 L 41.53 -163.22 L 43.62 -153.96 L 58.85 -149.04 L 56.09 -158.82 L 53.17 -168.12 L 50.08 -176.91 L 46.83 -185.16 L 43.45 -192.85 L 39.93 -199.95 L 36.30 -206.43 L 32.55 -212.29 L 28.70 -217.51 L 24.76 -222.06 L 20.75 -225.93 L 16.68 -229.12 L 12.55 -231.61 L 8.39 -233.39 L 4.20 -234.46 L 0.00 -234.82 Z" fill="rgb(11, 11, 11)" stroke="rgb(11, 11, 11)" stroke-width="1.2px" stroke-linejoin="round" stroke-linecap="butt" opacity="1" fill-rule="nonzero" stroke-dasharray="none" stroke-dashoffset="0px" stop-color="rgb(0, 0, 0)" stop-opacity="1"/><path d="M 0.00 -234.82 L -3.09 -234.48 L -6.17 -233.48 L -9.23 -231.80 L -12.26 -229.47 L -15.26 -226.47 L -18.22 -222.83 L -21.13 -218.55 L -23.97 -213.65 L -26.74 -208.14 L -29.44 -202.03 L -32.06 -195.34 L -34.58 -188.09 L -37.01 -180.31 L -39.32 -172.01 L -41.53 -163.22 L -43.62 -153.96 L -28.80 -157.44 L -27.41 -166.32 L -25.93 -174.75 L -24.39 -182.71 L -22.78 -190.16 L -21.10 -197.10 L -19.37 -203.49 L -17.59 -209.33 L -15.76 -214.61 L -13.88 -219.29 L -11.97 -223.38 L -10.03 -226.85 L -8.05 -229.71 L -6.06 -231.94 L -4.05 -233.54 L -2.03 -234.50 L 0.00 -234.82 Z" fill="rgb(11, 11, 11)" stroke="rgb(11, 11, 11)" stroke-width="1.2px" stroke-linejoin="round" stroke-linecap="butt" opacity="1" fill-rule="nonzero" stroke-dasharray="none" stroke-dashoffset="0px" stop-color="rgb(0, 0, 0)" stop-opacity="1"/><path d="M 0.00 -234.82 L 2.03 -234.50 L 4.05 -233.54 L 6.06 -231.94 L 8.05 -229.71 L 10.03 -226.85 L 11.97 -223.38 L 13.88 -219.29 L 15.76 -214.61 L 17.59 -209.33 L 19.37 -203.49 L 21.10 -197.10 L 22.78 -190.16 L 24.39 -182.71 L 25.93 -174.75 L 27.41 -166.32 L 28.80 -157.44 L 43.62 -153.96 L 41.53 -163.22 L 39.32 -172.01 L 37.01 -180.31 L 34.58 -188.09 L 32.06 -195.34 L 29.44 -202.03 L 26.74 -208.14 L 23.97 -213.65 L 21.13 -218.55 L 18.22 -222.83 L 15.26 -226.47 L 12.26 -229.47 L 9.23 -231.80 L 6.17 -233.48 L 3.09 -234.48 L 0.00 -234.82 Z" fill="rgb(11, 11, 11)" stroke="rgb(11, 11, 11)" stroke-width="1.2px" stroke-linejoin="round" stroke-linecap="butt" opacity="1" fill-rule="nonzero" stroke-dasharray="none" stroke-dashoffset="0px" stop-color="rgb(0, 0, 0)" stop-opacity="1"/><path d="M 0.00 -234.82 L -2.03 -234.50 L -4.05 -233.54 L -6.06 -231.94 L -8.05 -229.71 L -10.03 -226.85 L -11.97 -223.38 L -13.88 -219.29 L -15.76 -214.61 L -17.59 -209.33 L -19.37 -203.49 L -21.10 -197.10 L -22.78 -190.16 L -24.39 -182.71 L -25.93 -174.75 L -27.41 -166.32 L -28.80 -157.44 L -14.31 -159.51 L -13.61 -168.17 L -12.88 -176.38 L -12.10 -184.13 L -11.30 -191.39 L -10.47 -198.14 L -9.61 -204.36 L -8.72 -210.05 L -7.81 -215.17 L -6.88 -219.73 L -5.93 -223.70 L -4.97 -227.08 L -3.99 -229.86 L -3.00 -232.02 L -2.01 -233.58 L -1.00 -234.51 L 0.00 -234.82 Z" fill="rgb(11, 11, 11)" stroke="rgb(11, 11, 11)" stroke-width="1.2px" stroke-linejoin="round" stroke-linecap="butt" opacity="1" fill-rule="nonzero" stroke-dasharray="none" stroke-dashoffset="0px" stop-color="rgb(0, 0, 0)" stop-opacity="1"/><path d="M 0.00 -234.82 L 1.00 -234.51 L 2.01 -233.58 L 3.00 -232.02 L 3.99 -229.86 L 4.97 -227.08 L 5.93 -223.70 L 6.88 -219.73 L 7.81 -215.17 L 8.72 -210.05 L 9.61 -204.36 L 10.47 -198.14 L 11.30 -191.39 L 12.10 -184.13 L 12.88 -176.38 L 13.61 -168.17 L 14.31 -159.51 L 28.80 -157.44 L 27.41 -166.32 L 25.93 -174.75 L 24.39 -182.71 L 22.78 -190.16 L 21.10 -197.10 L 19.37 -203.49 L 17.59 -209.33 L 15.76 -214.61 L 13.88 -219.29 L 11.97 -223.38 L 10.03 -226.85 L 8.05 -229.71 L 6.06 -231.94 L 4.05 -233.54 L 2.03 -234.50 L 0.00 -234.82 Z" fill="rgb(11, 11, 11)" stroke="rgb(11, 11, 11)" stroke-width="1.2px" stroke-linejoin="round" stroke-linecap="butt" opacity="1" fill-rule="nonzero" stroke-dasharray="none" stroke-dashoffset="0px" stop-color="rgb(0, 0, 0)" stop-opacity="1"/><path d="M 0.00 -234.82 L -1.00 -234.51 L -2.01 -233.58 L -3.00 -232.02 L -3.99 -229.86 L -4.97 -227.08 L -5.93 -223.70 L -6.88 -219.73 L -7.81 -215.17 L -8.72 -210.05 L -9.61 -204.36 L -10.47 -198.14 L -11.30 -191.39 L -12.10 -184.13 L -12.88 -176.38 L -13.61 -168.17 L -14.31 -159.51 L 0.00 -160.20 L 0.00 -168.78 L 0.00 -176.93 L 0.00 -184.60 L 0.00 -191.79 L 0.00 -198.48 L 0.00 -204.65 L 0.00 -210.28 L 0.00 -215.36 L 0.00 -219.87 L 0.00 -223.81 L 0.00 -227.15 L 0.00 -229.90 L 0.00 -232.05 L 0.00 -233.59 L 0.00 -234.51 L 0.00 -234.82 Z" fill="rgb(11, 11, 11)" stroke="rgb(11, 11, 11)" stroke-width="1.2px" stroke-linejoin="round" stroke-linecap="butt" opacity="1" fill-rule="nonzero" stroke-dasharray="none" stroke-dashoffset="0px" stop-color="rgb(0, 0, 0)" stop-opacity="1"/><path d="M 0.00 -234.82 L 0.00 -234.51 L 0.00 -233.59 L 0.00 -232.05 L 0.00 -229.90 L 0.00 -227.15 L 0.00 -223.81 L 0.00 -219.87 L 0.00 -215.36 L 0.00 -210.28 L 0.00 -204.65 L 0.00 -198.48 L 0.00 -191.79 L 0.00 -184.60 L 0.00 -176.93 L 0.00 -168.78 L 0.00 -160.20 L 14.31 -159.51 L 13.61 -168.17 L 12.88 -176.38 L 12.10 -184.13 L 11.30 -191.39 L 10.47 -198.14 L 9.61 -204.36 L 8.72 -210.05 L 7.81 -215.17 L 6.88 -219.73 L 5.93 -223.70 L 4.97 -227.08 L 3.99 -229.86 L 3.00 -232.02 L 2.01 -233.58 L 1.00 -234.51 L 0.00 -234.82 Z" fill="rgb(11, 11, 11)" stroke="rgb(11, 11, 11)" stroke-width="1.2px" stroke-linejoin="round" stroke-linecap="butt" opacity="1" fill-rule="nonzero" stroke-dasharray="none" stroke-dashoffset="0px" stop-color="rgb(0, 0, 0)" stop-opacity="1"/><path d="M 7.81 -247.74 L 9.29 -248.34 L 9.98 -248.58 L 9.84 -248.44 L 8.86 -247.90 L 7.02 -246.95 L 4.32 -245.58 L 0.77 -243.77 L -3.63 -241.52 L -8.85 -238.81 L -14.86 -235.65 L -21.61 -232.04 L -29.06 -227.97 L -37.14 -223.45 L -45.78 -218.49 L -54.92 -213.09 L -64.46 -207.28 L -74.33 -201.06 L -84.42 -194.46 L -94.65 -187.49 L -104.91 -180.17 L -115.11 -172.54 L -125.15 -164.60 L -134.95 -156.41 L -144.40 -147.97 L -153.42 -139.31 L -161.93 -130.48 L -169.86 -121.49 L -177.14 -112.37 L -183.72 -103.16 L -189.53 -93.87 L -194.55 -84.54 L -198.73 -75.19 L -202.06 -65.83 L -204.53 -56.51 L -206.12 -47.22" fill="none" stroke="rgb(11, 11, 11)" stroke-width="24px" opacity="1" stroke-linecap="round" stroke-linejoin="round" fill-rule="nonzero" stroke-dasharray="none" stroke-dashoffset="0px" stop-color="rgb(0, 0, 0)" stop-opacity="1"/><path d="M 7.81 -250.74 L 9.29 -251.34 L 9.98 -251.58 L 9.84 -251.44 L 8.86 -250.90 L 7.02 -249.95 L 4.32 -248.58 L 0.77 -246.77 L -3.63 -244.52 L -8.85 -241.81 L -14.86 -238.65 L -21.61 -235.04 L -29.06 -230.97 L -37.14 -226.45 L -45.78 -221.49 L -54.92 -216.09 L -64.46 -210.28 L -74.33 -204.06 L -84.42 -197.46 L -94.65 -190.49 L -104.91 -183.17 L -115.11 -175.54 L -125.15 -167.60 L -134.95 -159.41 L -144.40 -150.97 L -153.42 -142.31 L -161.93 -133.48 L -169.86 -124.49 L -177.14 -115.37 L -183.72 -106.16 L -189.53 -96.87 L -194.55 -87.54 L -198.73 -78.19 L -202.06 -68.83 L -204.53 -59.51 L -206.12 -50.22" fill="none" stroke="rgb(255, 255, 255)" stroke-width="2px" opacity="0.32" stroke-linecap="round" stroke-linejoin="round" fill-rule="nonzero" stroke-dasharray="none" stroke-dashoffset="0px" stop-color="rgb(0, 0, 0)" stop-opacity="1"/><path d="M 12.31 -245.88 L 13.20 -245.94 L 13.27 -245.64 L 12.51 -244.95 L 10.89 -243.87 L 8.41 -242.38 L 5.07 -240.46 L 0.89 -238.11 L -4.13 -235.31 L -9.96 -232.08 L -16.55 -228.39 L -23.85 -224.26 L -31.82 -219.68 L -40.39 -214.67 L -49.49 -209.23 L -59.03 -203.37 L -68.93 -197.11 L -79.10 -190.47 L -89.44 -183.45 L -99.87 -176.09 L -110.28 -168.42 L -120.57 -160.44 L -130.65 -152.19 L -140.42 -143.70 L -149.80 -134.99 L -158.69 -126.10 L -167.03 -117.05 L -174.75 -107.87 L -181.77 -98.59 L -188.04 -89.24 L -193.52 -79.84 L -198.17 -70.41 L -201.97 -61.00 L -204.89 -51.60 L -206.93 -42.25 L -208.08 -32.97" fill="none" stroke="rgb(11, 11, 11)" stroke-width="24px" opacity="1" stroke-linecap="round" stroke-linejoin="round" fill-rule="nonzero" stroke-dasharray="none" stroke-dashoffset="0px" stop-color="rgb(0, 0, 0)" stop-opacity="1"/><path d="M 12.31 -248.88 L 13.20 -248.94 L 13.27 -248.64 L 12.51 -247.95 L 10.89 -246.87 L 8.41 -245.38 L 5.07 -243.46 L 0.89 -241.11 L -4.13 -238.31 L -9.96 -235.08 L -16.55 -231.39 L -23.85 -227.26 L -31.82 -222.68 L -40.39 -217.67 L -49.49 -212.23 L -59.03 -206.37 L -68.93 -200.11 L -79.10 -193.47 L -89.44 -186.45 L -99.87 -179.09 L -110.28 -171.42 L -120.57 -163.44 L -130.65 -155.19 L -140.42 -146.70 L -149.80 -137.99 L -158.69 -129.10 L -167.03 -120.05 L -174.75 -110.87 L -181.77 -101.59 L -188.04 -92.24 L -193.52 -82.84 L -198.17 -73.41 L -201.97 -64.00 L -204.89 -54.60 L -206.93 -45.25 L -208.08 -35.97" fill="none" stroke="rgb(255, 255, 255)" stroke-width="2px" opacity="0.32" stroke-linecap="round" stroke-linejoin="round" fill-rule="nonzero" stroke-dasharray="none" stroke-dashoffset="0px" stop-color="rgb(0, 0, 0)" stop-opacity="1"/><path d="M 16.77 -243.19 L 17.06 -242.72 L 16.52 -241.88 L 15.13 -240.65 L 12.88 -239.02 L 9.77 -236.99 L 5.81 -234.53 L 1.00 -231.64 L -4.62 -228.32 L -11.03 -224.56 L -18.18 -220.36 L -26.02 -215.73 L -34.49 -210.66 L -43.51 -205.17 L -53.02 -199.27 L -62.94 -192.97 L -73.16 -186.28 L -83.60 -179.23 L -93.98 -172.33 L -103.59 -167.12 L -113.23 -161.32 L -122.84 -154.95 L -132.36 -148.00 L -141.69 -140.51 L -150.76 -132.49 L -159.48 -123.97 L -167.75 -115.00 L -175.49 -105.59 L -182.61 -95.81 L -189.03 -85.69 L -194.66 -75.29 L -199.44 -64.66 L -203.33 -53.86 L -206.26 -42.94 L -208.22 -31.96 L -209.18 -20.97" fill="none" stroke="rgb(11, 11, 11)" stroke-width="24px" opacity="1" stroke-linecap="round" stroke-linejoin="round" fill-rule="nonzero" stroke-dasharray="none" stroke-dashoffset="0px" stop-color="rgb(0, 0, 0)" stop-opacity="1"/><path d="M 16.77 -246.19 L 17.06 -245.72 L 16.52 -244.88 L 15.13 -243.65 L 12.88 -242.02 L 9.77 -239.99 L 5.81 -237.53 L 1.00 -234.64 L -4.62 -231.32 L -11.03 -227.56 L -18.18 -223.36 L -26.02 -218.73 L -34.49 -213.66 L -43.51 -208.17 L -53.02 -202.27 L -62.94 -195.97 L -73.16 -189.28 L -83.60 -182.23 L -93.98 -175.33 L -103.59 -170.12 L -113.23 -164.32 L -122.84 -157.95 L -132.36 -151.00 L -141.69 -143.51 L -150.76 -135.49 L -159.48 -126.97 L -167.75 -118.00 L -175.49 -108.59 L -182.61 -98.81 L -189.03 -88.69 L -194.66 -78.29 L -199.44 -67.66 L -203.33 -56.86 L -206.26 -45.94 L -208.22 -34.96 L -209.18 -23.97" fill="none" stroke="rgb(255, 255, 255)" stroke-width="2px" opacity="0.32" stroke-linecap="round" stroke-linejoin="round" fill-rule="nonzero" stroke-dasharray="none" stroke-dashoffset="0px" stop-color="rgb(0, 0, 0)" stop-opacity="1"/><path d="M 21.18 -239.69 L 20.86 -238.68 L 19.71 -237.30 L 17.70 -235.53 L 14.83 -233.37 L 11.10 -230.80 L 6.52 -227.81 L 1.11 -224.40 L -5.09 -220.56 L -12.07 -216.29 L -19.75 -211.59 L -28.09 -206.47 L -37.03 -200.93 L -46.49 -194.98 L -56.38 -188.64 L -65.83 -184.41 L -75.06 -180.97 L -84.46 -176.95 L -93.98 -172.33 L -103.59 -167.12 L -113.23 -161.32 L -122.84 -154.95 L -132.36 -148.00 L -141.69 -140.51 L -150.76 -132.49 L -159.48 -123.97 L -167.75 -115.00 L -175.49 -105.59 L -182.61 -95.81 L -189.03 -85.69 L -194.66 -75.29 L -199.44 -64.66 L -203.33 -53.86 L -206.26 -42.94 L -208.22 -31.96 L -209.18 -20.97" fill="none" stroke="rgb(11, 11, 11)" stroke-width="24px" opacity="1" stroke-linecap="round" stroke-linejoin="round" fill-rule="nonzero" stroke-dasharray="none" stroke-dashoffset="0px" stop-color="rgb(0, 0, 0)" stop-opacity="1"/><path d="M 21.18 -242.69 L 20.86 -241.68 L 19.71 -240.30 L 17.70 -238.53 L 14.83 -236.37 L 11.10 -233.80 L 6.52 -230.81 L 1.11 -227.40 L -5.09 -223.56 L -12.07 -219.29 L -19.75 -214.59 L -28.09 -209.47 L -37.03 -203.93 L -46.49 -197.98 L -56.38 -191.64 L -65.83 -187.41 L -75.06 -183.97 L -84.46 -179.95 L -93.98 -175.33 L -103.59 -170.12 L -113.23 -164.32 L -122.84 -157.95 L -132.36 -151.00 L -141.69 -143.51 L -150.76 -135.49 L -159.48 -126.97 L -167.75 -118.00 L -175.49 -108.59 L -182.61 -98.81 L -189.03 -88.69 L -194.66 -78.29 L -199.44 -67.66 L -203.33 -56.86 L -206.26 -45.94 L -208.22 -34.96 L -209.18 -23.97" fill="none" stroke="rgb(255, 255, 255)" stroke-width="2px" opacity="0.32" stroke-linecap="round" stroke-linejoin="round" fill-rule="nonzero" stroke-dasharray="none" stroke-dashoffset="0px" stop-color="rgb(0, 0, 0)" stop-opacity="1"/><path d="M 25.51 -235.38 L 24.59 -233.84 L 22.83 -231.92 L 20.21 -229.62 L 16.73 -226.93 L 12.39 -223.83 L 7.21 -220.32 L 1.22 -216.40 L -5.55 -212.05 L -13.06 -207.29 L -21.26 -202.11 L -30.08 -196.52 L -39.28 -191.29 L -47.94 -189.56 L -56.79 -187.27 L -65.83 -184.41 L -75.06 -180.97 L -84.46 -176.95 L -93.98 -172.33 L -103.59 -167.12 L -113.23 -161.32 L -122.84 -154.95 L -132.36 -148.00 L -141.69 -140.51 L -150.76 -132.49 L -159.48 -123.97 L -167.75 -115.00 L -175.49 -105.59 L -182.61 -95.81 L -189.03 -85.69 L -194.66 -75.29 L -199.44 -64.66 L -203.33 -53.86 L -206.26 -42.94 L -208.22 -31.96 L -209.18 -20.97" fill="none" stroke="rgb(11, 11, 11)" stroke-width="24px" opacity="1" stroke-linecap="round" stroke-linejoin="round" fill-rule="nonzero" stroke-dasharray="none" stroke-dashoffset="0px" stop-color="rgb(0, 0, 0)" stop-opacity="1"/><path d="M 25.51 -238.38 L 24.59 -236.84 L 22.83 -234.92 L 20.21 -232.62 L 16.73 -229.93 L 12.39 -226.83 L 7.21 -223.32 L 1.22 -219.40 L -5.55 -215.05 L -13.06 -210.29 L -21.26 -205.11 L -30.08 -199.52 L -39.28 -194.29 L -47.94 -192.56 L -56.79 -190.27 L -65.83 -187.41 L -75.06 -183.97 L -84.46 -179.95 L -93.98 -175.33 L -103.59 -170.12 L -113.23 -164.32 L -122.84 -157.95 L -132.36 -151.00 L -141.69 -143.51 L -150.76 -135.49 L -159.48 -126.97 L -167.75 -118.00 L -175.49 -108.59 L -182.61 -98.81 L -189.03 -88.69 L -194.66 -78.29 L -199.44 -67.66 L -203.33 -56.86 L -206.26 -45.94 L -208.22 -34.96 L -209.18 -23.97" fill="none" stroke="rgb(255, 255, 255)" stroke-width="2px" opacity="0.32" stroke-linecap="round" stroke-linejoin="round" fill-rule="nonzero" stroke-dasharray="none" stroke-dashoffset="0px" stop-color="rgb(0, 0, 0)" stop-opacity="1"/><path d="M 29.76 -230.28 L 28.24 -228.21 L 25.88 -225.77 L 22.65 -222.94 L 18.57 -219.73 L 13.64 -216.12 L 7.88 -212.10 L 1.33 -207.67 L -5.99 -202.84 L -14.01 -197.59 L -22.53 -193.13 L -30.82 -192.48 L -39.28 -191.29 L -47.94 -189.56 L -56.79 -187.27 L -65.83 -184.41 L -75.06 -180.97 L -84.46 -176.95 L -93.98 -172.33 L -103.59 -167.12 L -113.23 -161.32 L -122.84 -154.95 L -132.36 -148.00 L -141.69 -140.51 L -150.76 -132.49 L -159.48 -123.97 L -167.75 -115.00 L -175.49 -105.59 L -182.61 -95.81 L -189.03 -85.69 L -194.66 -75.29 L -199.44 -64.66 L -203.33 -53.86 L -206.26 -42.94 L -208.22 -31.96 L -209.18 -20.97" fill="none" stroke="rgb(11, 11, 11)" stroke-width="24px" opacity="1" stroke-linecap="round" stroke-linejoin="round" fill-rule="nonzero" stroke-dasharray="none" stroke-dashoffset="0px" stop-color="rgb(0, 0, 0)" stop-opacity="1"/><path d="M 29.76 -233.28 L 28.24 -231.21 L 25.88 -228.77 L 22.65 -225.94 L 18.57 -222.73 L 13.64 -219.12 L 7.88 -215.10 L 1.33 -210.67 L -5.99 -205.84 L -14.01 -200.59 L -22.53 -196.13 L -30.82 -195.48 L -39.28 -194.29 L -47.94 -192.56 L -56.79 -190.27 L -65.83 -187.41 L -75.06 -183.97 L -84.46 -179.95 L -93.98 -175.33 L -103.59 -170.12 L -113.23 -164.32 L -122.84 -157.95 L -132.36 -151.00 L -141.69 -143.51 L -150.76 -135.49 L -159.48 -126.97 L -167.75 -118.00 L -175.49 -108.59 L -182.61 -98.81 L -189.03 -88.69 L -194.66 -78.29 L -199.44 -67.66 L -203.33 -56.86 L -206.26 -45.94 L -208.22 -34.96 L -209.18 -23.97" fill="none" stroke="rgb(255, 255, 255)" stroke-width="2px" opacity="0.32" stroke-linecap="round" stroke-linejoin="round" fill-rule="nonzero" stroke-dasharray="none" stroke-dashoffset="0px" stop-color="rgb(0, 0, 0)" stop-opacity="1"/><path d="M 33.90 -224.41 L 31.80 -221.81 L 28.84 -218.85 L 25.02 -215.51 L 20.35 -211.79 L 14.84 -207.67 L 8.52 -203.16 L 1.43 -198.25 L -6.40 -192.94 L -14.40 -193.27 L -22.53 -193.13 L -30.82 -192.48 L -39.28 -191.29 L -47.94 -189.56 L -56.79 -187.27 L -65.83 -184.41 L -75.06 -180.97 L -84.46 -176.95 L -93.98 -172.33 L -103.59 -167.12 L -113.23 -161.32 L -122.84 -154.95 L -132.36 -148.00 L -141.69 -140.51 L -150.76 -132.49 L -159.48 -123.97 L -167.75 -115.00 L -175.49 -105.59 L -182.61 -95.81 L -189.03 -85.69 L -194.66 -75.29 L -199.44 -64.66 L -203.33 -53.86 L -206.26 -42.94 L -208.22 -31.96 L -209.18 -20.97" fill="none" stroke="rgb(11, 11, 11)" stroke-width="24px" opacity="1" stroke-linecap="round" stroke-linejoin="round" fill-rule="nonzero" stroke-dasharray="none" stroke-dashoffset="0px" stop-color="rgb(0, 0, 0)" stop-opacity="1"/><path d="M 33.90 -227.41 L 31.80 -224.81 L 28.84 -221.85 L 25.02 -218.51 L 20.35 -214.79 L 14.84 -210.67 L 8.52 -206.16 L 1.43 -201.25 L -6.40 -195.94 L -14.40 -196.27 L -22.53 -196.13 L -30.82 -195.48 L -39.28 -194.29 L -47.94 -192.56 L -56.79 -190.27 L -65.83 -187.41 L -75.06 -183.97 L -84.46 -179.95 L -93.98 -175.33 L -103.59 -170.12 L -113.23 -164.32 L -122.84 -157.95 L -132.36 -151.00 L -141.69 -143.51 L -150.76 -135.49 L -159.48 -126.97 L -167.75 -118.00 L -175.49 -108.59 L -182.61 -98.81 L -189.03 -88.69 L -194.66 -78.29 L -199.44 -67.66 L -203.33 -56.86 L -206.26 -45.94 L -208.22 -34.96 L -209.18 -23.97" fill="none" stroke="rgb(255, 255, 255)" stroke-width="2px" opacity="0.32" stroke-linecap="round" stroke-linejoin="round" fill-rule="nonzero" stroke-dasharray="none" stroke-dashoffset="0px" stop-color="rgb(0, 0, 0)" stop-opacity="1"/><path d="M 37.93 -217.78 L 35.25 -214.67 L 31.70 -211.20 L 27.30 -207.36 L 22.06 -203.14 L 15.99 -198.53 L 9.14 -193.54 L 1.49 -192.05 L -6.41 -192.90 L -14.40 -193.27 L -22.53 -193.13 L -30.82 -192.48 L -39.28 -191.29 L -47.94 -189.56 L -56.79 -187.27 L -65.83 -184.41 L -75.06 -180.97 L -84.46 -176.95 L -93.98 -172.33 L -103.59 -167.12 L -113.23 -161.32 L -122.84 -154.95 L -132.36 -148.00 L -141.69 -140.51 L -150.76 -132.49 L -159.48 -123.97 L -167.75 -115.00 L -175.49 -105.59 L -182.61 -95.81 L -189.03 -85.69 L -194.66 -75.29 L -199.44 -64.66 L -203.33 -53.86 L -206.26 -42.94 L -208.22 -31.96 L -209.18 -20.97" fill="none" stroke="rgb(11, 11, 11)" stroke-width="24px" opacity="1" stroke-linecap="round" stroke-linejoin="round" fill-rule="nonzero" stroke-dasharray="none" stroke-dashoffset="0px" stop-color="rgb(0, 0, 0)" stop-opacity="1"/><path d="M 37.93 -220.78 L 35.25 -217.67 L 31.70 -214.20 L 27.30 -210.36 L 22.06 -206.14 L 15.99 -201.53 L 9.14 -196.54 L 1.49 -195.05 L -6.41 -195.90 L -14.40 -196.27 L -22.53 -196.13 L -30.82 -195.48 L -39.28 -194.29 L -47.94 -192.56 L -56.79 -190.27 L -65.83 -187.41 L -75.06 -183.97 L -84.46 -179.95 L -93.98 -175.33 L -103.59 -170.12 L -113.23 -164.32 L -122.84 -157.95 L -132.36 -151.00 L -141.69 -143.51 L -150.76 -135.49 L -159.48 -126.97 L -167.75 -118.00 L -175.49 -108.59 L -182.61 -98.81 L -189.03 -88.69 L -194.66 -78.29 L -199.44 -67.66 L -203.33 -56.86 L -206.26 -45.94 L -208.22 -34.96 L -209.18 -23.97" fill="none" stroke="rgb(255, 255, 255)" stroke-width="2px" opacity="0.32" stroke-linecap="round" stroke-linejoin="round" fill-rule="nonzero" stroke-dasharray="none" stroke-dashoffset="0px" stop-color="rgb(0, 0, 0)" stop-opacity="1"/><path d="M 7.81 -247.74 L 11.83 -248.45 L 16.53 -248.87 L 21.87 -248.97 L 27.84 -248.73 L 34.37 -248.15 L 41.44 -247.20 L 48.97 -245.88 L 56.90 -244.17 L 65.17 -242.07 L 73.71 -239.57 L 82.43 -236.68 L 91.25 -233.38 L 100.08 -229.69 L 108.85 -225.59 L 117.46 -221.11 L 125.82 -216.26 L 133.86 -211.03 L 141.48 -205.45 L 148.61 -199.53 L 155.18 -193.28 L 161.12 -186.74 L 166.36 -179.92 L 170.86 -172.83 L 174.57 -165.51 L 177.45 -157.98 L 179.48 -150.25 L 180.63 -142.37 L 180.89 -134.34 L 180.26 -126.20 L 178.76 -117.96 L 176.39 -109.65 L 173.17 -101.30 L 169.15 -92.92 L 164.34 -84.53 L 158.80 -76.14" fill="none" stroke="rgb(11, 11, 11)" stroke-width="24px" opacity="1" stroke-linecap="round" stroke-linejoin="round" fill-rule="nonzero" stroke-dasharray="none" stroke-dashoffset="0px" stop-color="rgb(0, 0, 0)" stop-opacity="1"/><path d="M 7.81 -250.74 L 11.83 -251.45 L 16.53 -251.87 L 21.87 -251.97 L 27.84 -251.73 L 34.37 -251.15 L 41.44 -250.20 L 48.97 -248.88 L 56.90 -247.17 L 65.17 -245.07 L 73.71 -242.57 L 82.43 -239.68 L 91.25 -236.38 L 100.08 -232.69 L 108.85 -228.59 L 117.46 -224.11 L 125.82 -219.26 L 133.86 -214.03 L 141.48 -208.45 L 148.61 -202.53 L 155.18 -196.28 L 161.12 -189.74 L 166.36 -182.92 L 170.86 -175.83 L 174.57 -168.51 L 177.45 -160.98 L 179.48 -153.25 L 180.63 -145.37 L 180.89 -137.34 L 180.26 -129.20 L 178.76 -120.96 L 176.39 -112.65 L 173.17 -104.30 L 169.15 -95.92 L 164.34 -87.53 L 158.80 -79.14" fill="none" stroke="rgb(255, 255, 255)" stroke-width="2px" opacity="0.32" stroke-linecap="round" stroke-linejoin="round" fill-rule="nonzero" stroke-dasharray="none" stroke-dashoffset="0px" stop-color="rgb(0, 0, 0)" stop-opacity="1"/><path d="M 12.31 -245.88 L 16.93 -246.11 L 22.20 -246.03 L 28.11 -245.63 L 34.60 -244.90 L 41.64 -243.81 L 49.16 -242.37 L 57.12 -240.55 L 65.44 -238.35 L 74.04 -235.76 L 82.87 -232.78 L 91.82 -229.40 L 100.83 -225.64 L 109.80 -221.48 L 118.64 -216.94 L 127.27 -212.03 L 135.61 -206.75 L 143.56 -201.11 L 151.05 -195.14 L 157.99 -188.85 L 164.33 -182.25 L 169.99 -175.37 L 174.92 -168.23 L 179.06 -160.85 L 182.39 -153.25 L 184.85 -145.47 L 186.43 -137.51 L 187.12 -129.42 L 186.91 -121.20 L 185.80 -112.89 L 183.81 -104.51 L 180.95 -96.09 L 177.25 -87.63 L 172.74 -79.16 L 167.48 -70.70 L 161.49 -62.27" fill="none" stroke="rgb(11, 11, 11)" stroke-width="24px" opacity="1" stroke-linecap="round" stroke-linejoin="round" fill-rule="nonzero" stroke-dasharray="none" stroke-dashoffset="0px" stop-color="rgb(0, 0, 0)" stop-opacity="1"/><path d="M 12.31 -248.88 L 16.93 -249.11 L 22.20 -249.03 L 28.11 -248.63 L 34.60 -247.90 L 41.64 -246.81 L 49.16 -245.37 L 57.12 -243.55 L 65.44 -241.35 L 74.04 -238.76 L 82.87 -235.78 L 91.82 -232.40 L 100.83 -228.64 L 109.80 -224.48 L 118.64 -219.94 L 127.27 -215.03 L 135.61 -209.75 L 143.56 -204.11 L 151.05 -198.14 L 157.99 -191.85 L 164.33 -185.25 L 169.99 -178.37 L 174.92 -171.23 L 179.06 -163.85 L 182.39 -156.25 L 184.85 -148.47 L 186.43 -140.51 L 187.12 -132.42 L 186.91 -124.20 L 185.80 -115.89 L 183.81 -107.51 L 180.95 -99.09 L 177.25 -90.63 L 172.74 -82.16 L 167.48 -73.70 L 161.49 -65.27" fill="none" stroke="rgb(255, 255, 255)" stroke-width="2px" opacity="0.32" stroke-linecap="round" stroke-linejoin="round" fill-rule="nonzero" stroke-dasharray="none" stroke-dashoffset="0px" stop-color="rgb(0, 0, 0)" stop-opacity="1"/><path d="M 16.77 -243.19 L 21.97 -242.93 L 27.81 -242.36 L 34.25 -241.47 L 41.25 -240.24 L 48.76 -238.66 L 56.73 -236.72 L 65.08 -234.41 L 73.75 -231.72 L 82.66 -228.65 L 91.74 -225.20 L 100.91 -221.36 L 110.07 -217.14 L 119.14 -212.54 L 128.03 -207.56 L 136.66 -202.23 L 144.94 -196.54 L 152.78 -190.52 L 160.10 -184.18 L 166.84 -177.53 L 172.93 -170.60 L 178.29 -163.41 L 182.89 -155.98 L 186.66 -148.33 L 189.58 -140.48 L 191.62 -132.47 L 192.76 -124.31 L 192.99 -116.03 L 192.30 -107.66 L 190.71 -99.21 L 188.24 -90.72 L 184.90 -82.19 L 180.73 -73.66 L 175.76 -65.14 L 170.05 -56.64 L 163.64 -48.19" fill="none" stroke="rgb(11, 11, 11)" stroke-width="24px" opacity="1" stroke-linecap="round" stroke-linejoin="round" fill-rule="nonzero" stroke-dasharray="none" stroke-dashoffset="0px" stop-color="rgb(0, 0, 0)" stop-opacity="1"/><path d="M 16.77 -246.19 L 21.97 -245.93 L 27.81 -245.36 L 34.25 -244.47 L 41.25 -243.24 L 48.76 -241.66 L 56.73 -239.72 L 65.08 -237.41 L 73.75 -234.72 L 82.66 -231.65 L 91.74 -228.20 L 100.91 -224.36 L 110.07 -220.14 L 119.14 -215.54 L 128.03 -210.56 L 136.66 -205.23 L 144.94 -199.54 L 152.78 -193.52 L 160.10 -187.18 L 166.84 -180.53 L 172.93 -173.60 L 178.29 -166.41 L 182.89 -158.98 L 186.66 -151.33 L 189.58 -143.48 L 191.62 -135.47 L 192.76 -127.31 L 192.99 -119.03 L 192.30 -110.66 L 190.71 -102.21 L 188.24 -93.72 L 184.90 -85.19 L 180.73 -76.66 L 175.76 -68.14 L 170.05 -59.64 L 163.64 -51.19" fill="none" stroke="rgb(255, 255, 255)" stroke-width="2px" opacity="0.32" stroke-linecap="round" stroke-linejoin="round" fill-rule="nonzero" stroke-dasharray="none" stroke-dashoffset="0px" stop-color="rgb(0, 0, 0)" stop-opacity="1"/><path d="M 21.18 -239.69 L 26.94 -238.94 L 33.32 -237.88 L 40.28 -236.50 L 47.76 -234.78 L 55.72 -232.71 L 64.10 -230.28 L 72.82 -227.49 L 81.81 -224.32 L 91.01 -220.78 L 100.32 -216.86 L 109.66 -212.57 L 118.94 -207.90 L 128.08 -202.87 L 137.00 -197.48 L 145.59 -191.75 L 153.78 -185.68 L 161.48 -179.29 L 168.63 -172.59 L 175.13 -165.62 L 180.94 -158.38 L 185.99 -150.90 L 190.24 -143.20 L 193.63 -135.30 L 196.15 -127.24 L 197.75 -119.03 L 198.44 -110.69 L 198.20 -102.26 L 197.05 -93.76 L 194.98 -85.20 L 192.03 -76.62 L 188.22 -68.02 L 183.60 -59.45 L 178.19 -50.90 L 172.05 -42.39 L 165.23 -33.95" fill="none" stroke="rgb(11, 11, 11)" stroke-width="24px" opacity="1" stroke-linecap="round" stroke-linejoin="round" fill-rule="nonzero" stroke-dasharray="none" stroke-dashoffset="0px" stop-color="rgb(0, 0, 0)" stop-opacity="1"/><path d="M 21.18 -242.69 L 26.94 -241.94 L 33.32 -240.88 L 40.28 -239.50 L 47.76 -237.78 L 55.72 -235.71 L 64.10 -233.28 L 72.82 -230.49 L 81.81 -227.32 L 91.01 -223.78 L 100.32 -219.86 L 109.66 -215.57 L 118.94 -210.90 L 128.08 -205.87 L 137.00 -200.48 L 145.59 -194.75 L 153.78 -188.68 L 161.48 -182.29 L 168.63 -175.59 L 175.13 -168.62 L 180.94 -161.38 L 185.99 -153.90 L 190.24 -146.20 L 193.63 -138.30 L 196.15 -130.24 L 197.75 -122.03 L 198.44 -113.69 L 198.20 -105.26 L 197.05 -96.76 L 194.98 -88.20 L 192.03 -79.62 L 188.22 -71.02 L 183.60 -62.45 L 178.19 -53.90 L 172.05 -45.39 L 165.23 -36.95" fill="none" stroke="rgb(255, 255, 255)" stroke-width="2px" opacity="0.32" stroke-linecap="round" stroke-linejoin="round" fill-rule="nonzero" stroke-dasharray="none" stroke-dashoffset="0px" stop-color="rgb(0, 0, 0)" stop-opacity="1"/><path d="M 25.51 -235.38 L 31.82 -234.15 L 38.72 -232.60 L 46.17 -230.73 L 54.11 -228.52 L 62.50 -225.97 L 71.25 -223.06 L 80.31 -219.80 L 89.60 -216.17 L 99.04 -212.17 L 108.55 -207.80 L 118.03 -203.07 L 127.41 -197.97 L 136.60 -192.53 L 145.50 -186.74 L 154.03 -180.62 L 162.10 -174.19 L 169.65 -167.45 L 176.58 -160.43 L 182.83 -153.15 L 188.35 -145.62 L 193.07 -137.88 L 196.95 -129.94 L 199.95 -121.83 L 202.05 -113.57 L 203.22 -105.18 L 203.45 -96.70 L 202.76 -88.14 L 201.13 -79.54 L 198.60 -70.90 L 195.18 -62.26 L 190.92 -53.63 L 185.85 -45.03 L 180.02 -36.48 L 173.47 -28.00 L 166.27 -19.60" fill="none" stroke="rgb(11, 11, 11)" stroke-width="24px" opacity="1" stroke-linecap="round" stroke-linejoin="round" fill-rule="nonzero" stroke-dasharray="none" stroke-dashoffset="0px" stop-color="rgb(0, 0, 0)" stop-opacity="1"/><path d="M 25.51 -238.38 L 31.82 -237.15 L 38.72 -235.60 L 46.17 -233.73 L 54.11 -231.52 L 62.50 -228.97 L 71.25 -226.06 L 80.31 -222.80 L 89.60 -219.17 L 99.04 -215.17 L 108.55 -210.80 L 118.03 -206.07 L 127.41 -200.97 L 136.60 -195.53 L 145.50 -189.74 L 154.03 -183.62 L 162.10 -177.19 L 169.65 -170.45 L 176.58 -163.43 L 182.83 -156.15 L 188.35 -148.62 L 193.07 -140.88 L 196.95 -132.94 L 199.95 -124.83 L 202.05 -116.57 L 203.22 -108.18 L 203.45 -99.70 L 202.76 -91.14 L 201.13 -82.54 L 198.60 -73.90 L 195.18 -65.26 L 190.92 -56.63 L 185.85 -48.03 L 180.02 -39.48 L 173.47 -31.00 L 166.27 -22.60" fill="none" stroke="rgb(255, 255, 255)" stroke-width="2px" opacity="0.32" stroke-linecap="round" stroke-linejoin="round" fill-rule="nonzero" stroke-dasharray="none" stroke-dashoffset="0px" stop-color="rgb(0, 0, 0)" stop-opacity="1"/><path d="M -182.00 -90.00 L -183.60 -86.08 L -185.12 -82.15 L -186.47 -78.23 L -187.58 -74.31 L -188.40 -70.38 L -188.88 -66.46 L -188.99 -62.54 L -188.74 -58.62 L -188.12 -54.69 L -187.18 -50.77 L -185.97 -46.85 L -184.55 -42.92 L -182.99 -39.00 L -181.38 -35.08 L -179.80 -31.15 L -178.34 -27.23 L -177.07 -23.31 L -176.06 -19.38 L -175.37 -15.46 L -175.03 -11.54 L -175.06 -7.62 L -175.46 -3.69 L -176.20 0.23 L -177.26 4.15 L -178.56 8.08 L -180.04 12.00 L -181.63 15.92 L -183.24 19.85 L -184.78 23.77 L -186.18 27.69 L -187.35 31.62 L -188.24 35.54 L -188.80 39.46 L -189.00 43.38 L -188.83 47.31 L -188.29 51.23 L -187.42 55.15 L -186.27 59.08 L -184.88 63.00" fill="none" stroke="rgb(11, 11, 11)" stroke-width="18px" opacity="1" stroke-linecap="round" stroke-linejoin="round" fill-rule="nonzero" stroke-dasharray="none" stroke-dashoffset="0px" stop-color="rgb(0, 0, 0)" stop-opacity="1"/><path d="M -182.00 -90.00 L -183.60 -86.08 L -185.12 -82.15 L -186.47 -78.23 L -187.58 -74.31 L -188.40 -70.38 L -188.88 -66.46 L -188.99 -62.54 L -188.74 -58.62 L -188.12 -54.69 L -187.18 -50.77 L -185.97 -46.85 L -184.55 -42.92 L -182.99 -39.00 L -181.38 -35.08 L -179.80 -31.15 L -178.34 -27.23 L -177.07 -23.31 L -176.06 -19.38 L -175.37 -15.46 L -175.03 -11.54 L -175.06 -7.62 L -175.46 -3.69 L -176.20 0.23 L -177.26 4.15 L -178.56 8.08 L -180.04 12.00 L -181.63 15.92 L -183.24 19.85 L -184.78 23.77 L -186.18 27.69 L -187.35 31.62 L -188.24 35.54 L -188.80 39.46 L -189.00 43.38 L -188.83 47.31 L -188.29 51.23 L -187.42 55.15 L -186.27 59.08 L -184.88 63.00" fill="none" stroke="rgb(255, 255, 255)" stroke-width="1.6px" opacity="0.32" stroke-linecap="round" stroke-linejoin="round" fill-rule="nonzero" stroke-dasharray="none" stroke-dashoffset="0px" stop-color="rgb(0, 0, 0)" stop-opacity="1"/><path d="M 182.00 -90.00 L 183.60 -86.08 L 185.12 -82.15 L 186.47 -78.23 L 187.58 -74.31 L 188.40 -70.38 L 188.88 -66.46 L 188.99 -62.54 L 188.74 -58.62 L 188.12 -54.69 L 187.18 -50.77 L 185.97 -46.85 L 184.55 -42.92 L 182.99 -39.00 L 181.38 -35.08 L 179.80 -31.15 L 178.34 -27.23 L 177.07 -23.31 L 176.06 -19.38 L 175.37 -15.46 L 175.03 -11.54 L 175.06 -7.62 L 175.46 -3.69 L 176.20 0.23 L 177.26 4.15 L 178.56 8.08 L 180.04 12.00 L 181.63 15.92 L 183.24 19.85 L 184.78 23.77 L 186.18 27.69 L 187.35 31.62 L 188.24 35.54 L 188.80 39.46 L 189.00 43.38 L 188.83 47.31 L 188.29 51.23 L 187.42 55.15 L 186.27 59.08 L 184.88 63.00" fill="none" stroke="rgb(11, 11, 11)" stroke-width="18px" opacity="1" stroke-linecap="round" stroke-linejoin="round" fill-rule="nonzero" stroke-dasharray="none" stroke-dashoffset="0px" stop-color="rgb(0, 0, 0)" stop-opacity="1"/><path d="M 182.00 -90.00 L 183.60 -86.08 L 185.12 -82.15 L 186.47 -78.23 L 187.58 -74.31 L 188.40 -70.38 L 188.88 -66.46 L 188.99 -62.54 L 188.74 -58.62 L 188.12 -54.69 L 187.18 -50.77 L 185.97 -46.85 L 184.55 -42.92 L 182.99 -39.00 L 181.38 -35.08 L 179.80 -31.15 L 178.34 -27.23 L 177.07 -23.31 L 176.06 -19.38 L 175.37 -15.46 L 175.03 -11.54 L 175.06 -7.62 L 175.46 -3.69 L 176.20 0.23 L 177.26 4.15 L 178.56 8.08 L 180.04 12.00 L 181.63 15.92 L 183.24 19.85 L 184.78 23.77 L 186.18 27.69 L 187.35 31.62 L 188.24 35.54 L 188.80 39.46 L 189.00 43.38 L 188.83 47.31 L 188.29 51.23 L 187.42 55.15 L 186.27 59.08 L 184.88 63.00" fill="none" stroke="rgb(255, 255, 255)" stroke-width="1.6px" opacity="0.32" stroke-linecap="round" stroke-linejoin="round" fill-rule="nonzero" stroke-dasharray="none" stroke-dashoffset="0px" stop-color="rgb(0, 0, 0)" stop-opacity="1"/></g><g transform="rotate(0.0433437100704248 505.0452282192039 341.8022736875501)" fill="rgb(0, 0, 0)" stroke="none" stroke-width="1px" stroke-linecap="butt" stroke-linejoin="miter" opacity="1" fill-rule="nonzero" stroke-dasharray="none" stroke-dashoffset="0px" stop-color="rgb(0, 0, 0)" stop-opacity="1"><path d="M 476.0452282192039 271.8022736875501 Q 457.0452282192039 257.8022736875501 438.0452282192039 273.3022736875501" fill="none" stroke="rgb(11, 11, 11)" stroke-width="11px" stroke-linecap="round" stroke-linejoin="round" opacity="1" fill-rule="nonzero" stroke-dasharray="none" stroke-dashoffset="0px" stop-color="rgb(0, 0, 0)" stop-opacity="1"/><path data-feature="near-brow" d="M 577.0452282192039 271.8022736875501 Q 554.0452282192039 253.8022736875501 526.0452282192039 276.8022736875501" fill="none" stroke="rgb(11, 11, 11)" stroke-width="11px" stroke-linecap="round" stroke-linejoin="round" opacity="1" fill-rule="nonzero" stroke-dasharray="none" stroke-dashoffset="0px" stop-color="rgb(0, 0, 0)" stop-opacity="1"/><ellipse data-feature="far-eye" cx="457.0452282192039" cy="331.8022736875501" rx="13" ry="28" fill="rgb(11, 11, 11)" stroke="none" stroke-width="1px" stroke-linecap="butt" stroke-linejoin="miter" opacity="1" fill-rule="nonzero" stroke-dasharray="none" stroke-dashoffset="0px" stop-color="rgb(0, 0, 0)" stop-opacity="1"/><ellipse data-feature="near-eye" cx="553.0452282192039" cy="331.8022736875501" rx="13" ry="28" fill="rgb(11, 11, 11)" stroke="none" stroke-width="1px" stroke-linecap="butt" stroke-linejoin="miter" opacity="1" fill-rule="nonzero" stroke-dasharray="none" stroke-dashoffset="0px" stop-color="rgb(0, 0, 0)" stop-opacity="1"/><path d="M 555.0452282192039 396.8022736875501 Q 505.0452282192039 425.8022736875501 455.0452282192039 396.8022736875501" fill="none" stroke="rgb(11, 11, 11)" stroke-width="11px" stroke-linecap="round" stroke-linejoin="round" opacity="1" fill-rule="nonzero" stroke-dasharray="none" stroke-dashoffset="0px" stop-color="rgb(0, 0, 0)" stop-opacity="1"/></g></g><g id="fx" fill="rgb(0, 0, 0)" stroke="none" stroke-width="1px" stroke-linecap="butt" stroke-linejoin="miter" opacity="1" fill-rule="nonzero" stroke-dasharray="none" stroke-dashoffset="0px" stop-color="rgb(0, 0, 0)" stop-opacity="1"/></svg>